<?xml version="1.0" encoding="UTF-8" standalone="no"?>
<svg
   xmlns:dc="http://purl.org/dc/elements/1.1/"
   xmlns:cc="http://creativecommons.org/ns#"
   xmlns:rdf="http://www.w3.org/1999/02/22-rdf-syntax-ns#"
   xmlns:svg="http://www.w3.org/2000/svg"
   xmlns="http://www.w3.org/2000/svg"
   xmlns:xlink="http://www.w3.org/1999/xlink"
   xmlns:sodipodi="http://sodipodi.sourceforge.net/DTD/sodipodi-0.dtd"
   xmlns:inkscape="http://www.inkscape.org/namespaces/inkscape"
   data-name="Layer 1"
   width="1136.6363525390625"
   height="643.1818237304688"
   style=""
   version="1.1"
   id="svg4179"
   sodipodi:docname="intro-img.svg"
   inkscape:version="0.92.3 (2405546, 2018-03-11)">
  <metadata
     id="metadata4183">
    <rdf:RDF>
      <cc:Work
         rdf:about="">
        <dc:format>image/svg+xml</dc:format>
        <dc:type
           rdf:resource="http://purl.org/dc/dcmitype/StillImage" />
      </cc:Work>
    </rdf:RDF>
  </metadata>
  <sodipodi:namedview
     pagecolor="#ffffff"
     bordercolor="#666666"
     borderopacity="1"
     objecttolerance="10"
     gridtolerance="10"
     guidetolerance="10"
     inkscape:pageopacity="0"
     inkscape:pageshadow="2"
     inkscape:window-width="1366"
     inkscape:window-height="705"
     id="namedview4181"
     showgrid="false"
     inkscape:zoom="0.7067109"
     inkscape:cx="523.03186"
     inkscape:cy="319.92107"
     inkscape:window-x="-8"
     inkscape:window-y="-8"
     inkscape:window-maximized="1"
     inkscape:current-layer="svg4179" />
  <rect
     id="backgroundrect"
     width="100%"
     height="100%"
     x="0"
     y="0"
     fill="none"
     stroke="none" />
  <defs
     id="defs3937">
    <linearGradient
       id="ebf7d176-5ffd-4420-bcca-304f4f77ac7a"
       x1="0.5000468492507935"
       y1="1.000276803970337"
       x2="0.5000468492507935"
       y2="-0.00009860129648586735">
      <stop
         offset="0"
         stop-color="gray"
         stop-opacity="0.25"
         id="stop3928" />
      <stop
         offset="0.54"
         stop-color="gray"
         stop-opacity="0.12"
         id="stop3930" />
      <stop
         offset="1"
         stop-color="gray"
         stop-opacity="0.1"
         id="stop3932" />
    </linearGradient>
    <linearGradient
       id="ffba99e4-d350-4cb7-a6ec-0715674198cb"
       x1="-68498.769"
       y1="222892.75"
       x2="-68498.769"
       y2="84486.692"
       gradientTransform="matrix(0.71609647,0,0,1.3964599,-36.6,-133.2)"
       xlink:href="#ebf7d176-5ffd-4420-bcca-304f4f77ac7a"
       gradientUnits="userSpaceOnUse" />
    <linearGradient
       id="f94edff0-5540-4209-9ffe-d34bff61dab8"
       x1="57037.477"
       y1="214908.77"
       x2="57037.477"
       y2="98190.734"
       xlink:href="#ebf7d176-5ffd-4420-bcca-304f4f77ac7a"
       gradientTransform="matrix(0.71207376,0,0,1.4043489,-36.6,-133.2)"
       gradientUnits="userSpaceOnUse" />
    <linearGradient
       inkscape:collect="always"
       xlink:href="#ebf7d176-5ffd-4420-bcca-304f4f77ac7a"
       id="linearGradient7890"
       x1="509.29787"
       y1="678.30792"
       x2="509.29787"
       y2="483.57206"
       gradientTransform="matrix(0.91682847,0,0,1.0907166,-36.6,-133.2)"
       gradientUnits="userSpaceOnUse" />
  </defs>
  <title
     id="title3939">status update</title>
  <path
     style="opacity:0.21000001;fill:#3c74f3"
     inkscape:connector-curvature="0"
     class=""
     id="svg_1"
     d="m 650.40002,132.75728 c -70.76,0.54 -138.72999,-15.45 -203.72999,-33.269997 -65,-17.82 -129.47,-37.830001 -198.84,-46 -44.62,-5.28 -95.4,-4.449999 -130.47999,16 -33.750003,19.66 -43.730003,51.879997 -48.660003,81.620007 -3.71,22.38 -5.52,45.86 7.54,66.23 9.069999,14.13 24.690003,25.73 35.680003,39.19 38.26,46.84 14.54,107.11 -23.400003,155.50999 -17.770039,22.66997 -38.570035,44.48998 -52.110035,68.48998 -13.540001,24 -19.180001,51.11 -5.79,74.6 13.279999,23.29 43.54,40.06 76.079998,51.45 66.1,23.14 143.17,27.7 218.23,29.17 166.14,3.24 332.70999,-6.64 498.82001,-16.51 61.48,-3.65 123.23,-7.33 183.47999,-17.15 33.46,-5.45 67.93,-13.43 91.75,-30.6 30.24,-21.8 36.68,-57.12 15,-82.34 -36.37,-42.29 -133,-49.68 -159,-95.53 -14.31,-25.24 -1.57,-54.37 17,-78.91 39.94,-52.65 108.34,-100 109.95,-158.63001 1.11,-40.25 -34,-79.279996 -86.68,-96.429997 -55.24,-18 -130.78,-12.79 -169.84,21.620001 -40.15995,35.370016 -112.49998,51.020026 -174.99998,51.490026 z" />
  <path
     style="fill:#3c74f3"
     inkscape:connector-curvature="0"
     id="svg_2"
     d="m 928.97001,550.93001 c 0,0 -12.29,-8.11 -24.47,-2.35 0,0 3.75,7.23 19.17,6.54 z" />
  <path
     style="fill:#3c74f3"
     inkscape:connector-curvature="0"
     id="svg_3"
     d="m 930.48002,551.36 c 0,0 3.74,14.24 -5.63,23.93 0,0 -5.64,-5.87 -0.05,-20.25 z" />
  <path
     style="fill:#3c74f3"
     inkscape:connector-curvature="0"
     id="svg_4"
     d="m 945.80997,537.69002 c 0,0 -0.91,-12.11 -28.26,-8.1 0,0 -0.12,7.82 9.48,11.52 9.6,3.7 13.99003,0.58 18.78,-3.42 z" />
  <path
     style="fill:#3c74f3"
     inkscape:connector-curvature="0"
     id="svg_5"
     d="m 947.49003,537.61 c 0,0 11.56,3.71 1.25,29.36 0,0 -7.62,-1.7 -9,-11.91 -1.38,-10.21 2.73999,-13.73998 7.75,-17.45 z" />
  <path
     style="fill:#3c74f3"
     inkscape:connector-curvature="0"
     id="svg_6"
     d="m 962.97001,520.42 c 0,0 1.57,-19.93 -26.38,-17.88 0,0 -2,18 21.45,22.68 z" />
  <path
     style="fill:#3c74f3"
     inkscape:connector-curvature="0"
     id="svg_7"
     d="m 981.4,497.93001 c 0,0 -3.83,-22.59 -31.76,-15.86 0,0 -0.11,19.53 27.2,21.24 z" />
  <path
     style="fill:#3c74f3"
     inkscape:connector-curvature="0"
     id="svg_8"
     d="m 994.94004,474.67 c 0,0 -6.42,-22 -34.1,-15.42 0,0 6.59,19.79 32.26,19.48 z" />
  <path
     style="fill:#3c74f3"
     inkscape:connector-curvature="0"
     id="svg_9"
     d="m 1007.76,451.95003 c 0,0 -6.27,-22.83 -33.00001,-16 0,0 8.92,21.69 31.23001,19.87 z" />
  <path
     style="fill:#3c74f3"
     inkscape:connector-curvature="0"
     id="svg_10"
     d="m 1016.03,430.37001 c 0,0 -4.82,-27.92 -29.73999,-21.74 0,0 7.23,25.4 27.89999,25.8 z" />
  <path
     style="fill:#3c74f3"
     inkscape:connector-curvature="0"
     id="svg_11"
     d="m 1023.77,404.3 c 0,0 -5.78,-28.15 -31,-20 0,0 9.89,26.6 29.22,23.85 z" />
  <path
     style="fill:#3c74f3"
     inkscape:connector-curvature="0"
     id="svg_12"
     d="m 1028.57,380.02998 c 0,0 -9.19,-28.14 -28.67995,-27.38 0,0 9.39995,29.73 26.99995,33 z" />
  <path
     style="fill:#3c74f3"
     inkscape:connector-curvature="0"
     id="svg_13"
     d="m 1031.62,356.36 c 0,0 -10,-33.88 -25.87,-31.27 0,0 6.93,25.9 25.3,36.55 z" />
  <path
     style="fill:#3c74f3"
     inkscape:connector-curvature="0"
     id="svg_14"
     d="m 1033.4,328.08 c 0,0 -9.37,-28.23 -25,-29.36 0,0 6.37,27.78 24.68,36.69 z" />
  <path
     style="fill:#3c74f3"
     inkscape:connector-curvature="0"
     id="svg_15"
     d="m 1035.24,301.8 c 0,0 -11.69,-28.26 -22,-28.9 0,0 5.08,27.83 21,33.54 z" />
  <path
     style="fill:#3c74f3"
     inkscape:connector-curvature="0"
     id="svg_16"
     d="m 1036.54,277.23 c 0,0 -7.18,-30.70001 -17.52,-33.24001 0,0 1.41,25.11 16.48,35.54 z" />
  <path
     style="fill:#3c74f3"
     inkscape:connector-curvature="0"
     id="svg_17"
     d="m 1040.4,245.14 c 0,0 -7.56,-24.46 -15.93,-28.19 0,0 1.66,28.84 14,34.18 z" />
  <path
     style="fill:#3c74f3"
     inkscape:connector-curvature="0"
     id="svg_18"
     d="m 1043.66,224.06999 1.53,-43.14 c 0,0 -15.62,32.56 -2.68,50.75 z" />
  <path
     style="fill:#3c74f3"
     inkscape:connector-curvature="0"
     id="svg_19"
     d="m 1055.75,181.2 c 0,0 11.26,-31.5 14,-33.26 0,0 -22.1,20.44 -19.94,46.73 z" />
  <path
     style="fill:#3c74f3"
     inkscape:connector-curvature="0"
     id="svg_20"
     d="m 963.74003,520.27998 c 0,0 19.82,-2.6 19.22,25.42 0,0 -17.91,2.91 -23.75,-20.25 z" />
  <path
     style="fill:#3c74f3"
     inkscape:connector-curvature="0"
     id="svg_21"
     d="m 982.4,497.17 c 0,0 22.91,-0.07 21,28.6 0,0 -19.22,3.43 -25.57,-23.18 z" />
  <path
     style="fill:#3c74f3"
     inkscape:connector-curvature="0"
     id="svg_22"
     d="m 995.16001,476.51997 c 0,0 20.78999,-9.75 34.09999,15.42 0,0 -19.21,8.12 -35.92999,-11.35 z" />
  <path
     style="fill:#3c74f3"
     inkscape:connector-curvature="0"
     id="svg_23"
     d="m 1008.2199,452.15999 c 0,0 21.29,-10.37 33.79,14.21 0,0 -22.17,7.64 -35.54,-10.32 z" />
  <path
     style="fill:#3c74f3"
     inkscape:connector-curvature="0"
     id="svg_24"
     d="m 1015.75,430.98 c 0,0 20.49,-19.58 36.85,0.22 0,0 -20.94,16.1 -37.79,4.14 z" />
  <path
     style="fill:#3c74f3"
     inkscape:connector-curvature="0"
     id="svg_25"
     d="m 1022.61,403.63002 c 0,0 20.62,-20 36.84,0.92 0,0 -23.14,16.43 -37.57,3.28 z" />
  <path
     style="fill:#3c74f3"
     inkscape:connector-curvature="0"
     id="svg_26"
     d="m 1026.4699,379.23 c 0,0 15.88,-25 34.57,-19.41 0,0 -16.47,26.47 -34.4,25.29 z" />
  <path
     style="fill:#3c74f3"
     inkscape:connector-curvature="0"
     id="svg_27"
     d="m 1031.15,356.2 c 0,0 16,-31.49 31.13,-26 0,0 -11.53,24.2 -31.54,31.31 z" />
  <path
     style="fill:#3c74f3"
     inkscape:connector-curvature="0"
     id="svg_28"
     d="m 1032.25,326.47002 c 0,0 16.45,-24.78 31.86,-21.76 0,0 -13.45,25.13 -33.45,28.93 z" />
  <path
     style="fill:#3c74f3"
     inkscape:connector-curvature="0"
     id="svg_29"
     d="m 1033.5,301.19002 c 0,0 12.75,-27.8 23.12,-28 0,0 -6.13,27.61 -22.26,32.72 z" />
  <path
     style="fill:#3c74f3"
     inkscape:connector-curvature="0"
     id="svg_30"
     d="m 1036.03,276.62999 c 0,0 14.17,-28.17 24.82,-28.22 0,0 -7.25,24.08 -24.35,30.69 z" />
  <path
     style="fill:#3c74f3"
     inkscape:connector-curvature="0"
     id="svg_31"
     d="m 1038.16,246.87001 c 0,0 10.6,-23.3 19.38,-25.94 0,0 -5.3,28.4 -18.21,32.12 z" />
  <path
     style="fill:#3c74f3"
     inkscape:connector-curvature="0"
     id="svg_32"
     d="m 1044.92,223.25002 23.69,-36.08001 c 0,0 -6.07,35.6 -27.14,43 z" />
  <path
     style="fill:#3c74f3"
     inkscape:connector-curvature="0"
     id="svg_33"
     d="m 1061.18,184.09999 c 0,0 27.54,-19 28.53,-22.08 0,0 -14,26.62 -40,31.32 z" />
  <path
     style="fill:#3c74f3"
     inkscape:connector-curvature="0"
     id="svg_34"
     d="m 1062.8301,175.55 c 0,0 31.61,-30.38 39.68,-30.35 0,0 -26.07,1.19 -40.44,28.74 z" />
  <path
     style="fill:#444053"
     inkscape:connector-curvature="0"
     id="svg_35"
     d="m 1038.4699,251.37999 1.15,0.15 c 5.94,-46.5 14.6,-74 24.39,-77.37 l -0.38,-1.1 c -10.3799,3.6 -19.0799,30.68002 -25.16,78.32 z" />
  <path
     style="fill:#444053"
     inkscape:connector-curvature="0"
     id="svg_36"
     d="m 1029.74,362.55 1.74,0.15 c 0.36,-4.34 0.64,-8.79 0.83,-13.21 1.66,-38.48 4.23,-73.82 7.62,-100.30999 l -1,-1.25 c -3.39,26.54 -6.69,62.95 -8.35,101.48999 -0.18,4.38 -0.48,8.82001 -0.84,13.13 z" />
  <path
     style="fill:#444053"
     inkscape:connector-curvature="0"
     id="svg_37"
     d="m 896.50999,573.06001 c 0.31,-0.13 30.94,-13.81 62.73,-46.44 a 252.42,252.42 0 0 0 45.85001,-65 c 14.69,-29.93 23.65,-66.70999 26.66,-102.44 l -1.82,0.85 c -6.74,80.2 -43.26001,135 -72.29002,164.85001 -31.48,32.33 -61.75999,45.87 -62.06,46 z" />
  <path
     style="opacity:0.23999999;fill:#ffffff"
     inkscape:connector-curvature="0"
     class=""
     id="svg_38"
     d="M 969.85001,31.190002 V 549.61 c 0,15.41 -14.87,28 -33.23,28 h -703.37 c -18.36,0 -33.23,-12.54 -33.23,-28 V 31.190002 c 0,-15.439999 14.87,-31.1900000926514 33.23,-31.1900000926514 L 936.58002,1.7100019 c 18.35996,4.8e-6 33.26999,14.0900011 33.26999,29.4800001 z" />
  <path
     style="fill:#3f3d56"
     inkscape:connector-curvature="0"
     id="svg_39"
     d="m 969.85001,31.350006 v 24 H 200.02 v -24 A 31.35,31.35 0 0 1 231.4,0 h 707.10999 a 31.35,31.35 0 0 1 31.34002,31.350006 z" />
  <circle
     style="opacity:0.8;fill:#fa5959"
     id="svg_40"
     r="11.08"
     cy="27.67"
     cx="237.32001" />
  <circle
     style="opacity:0.8;fill:#fed253"
     id="svg_41"
     r="11.08"
     cy="27.67"
     cx="269.54999" />
  <circle
     style="opacity:0.8;fill:#8ccf4d"
     id="svg_42"
     r="11.08"
     cy="27.67"
     cx="301.78" />
  <g
     style="opacity:1;fill:#c1d5ff;fill-opacity:1"
     class=""
     id="svg_43">
    <path
       style="opacity:1;fill:#c1d5ff;fill-opacity:1"
       inkscape:connector-curvature="0"
       id="svg_44"
       d="m 653.4,189.8 v 56 c 0,1.67 -3.13,3 -7,3 H 498.68003 c -3.86,0 -7,-1.35 -7,-3 v -56 c 0,-1.67 3.12,-3.37 7,-3.37 H 646.4 c 3.88001,-0.01 7,1.69001 7,3.37 z" />
  </g>
  <rect
     style="fill:#3c74f3"
     id="svg_45"
     height="2.72"
     width="76.959999"
     y="206.42"
     x="562.66998" />
  <path
     style="opacity:0.2;fill:#3c74f3"
     inkscape:connector-curvature="0"
     id="svg_46"
     d="m 523.73002,200.46001 a 18.25,18.25 0 0 0 -10.06,33.47 v -1.21 a 4.1500001,4.1500001 0 0 1 3.65,-4.11 7.2399998,7.2399998 0 0 0 12.7,0 4.1500001,4.1500001 0 0 1 3.65,4.11 v 1.29 a 18.25,18.25 0 0 0 -9.94,-33.55 z m 7.16,23.14 a 7.23,7.23 0 0 1 -14.43,0 7.9200001,7.9200001 0 0 1 4.15,-10.61 2.46,2.46 0 0 1 -0.39,-1.31 2.4100001,2.4100001 0 0 1 2.42,-2.41 h 0.17 a 2.4100001,2.4100001 0 0 0 -2.24,2.4 2.4400001,2.4400001 0 0 0 0.32,1.2 h 0.07 a 2.6099999,2.6099999 0 0 1 0,-0.48 2.3499999,2.3499999 0 0 1 0.46,-1.4 2.4000001,2.4000001 0 0 1 2.3,-1.7 h 0.17 a 2.3900001,2.3900001 0 0 0 -1.84,1.08 2.3399999,2.3399999 0 0 1 1.33,-0.4 2.4100001,2.4100001 0 0 1 2.41,2.41 2.45,2.45 0 0 1 0,0.27 7.9299998,7.9299998 0 0 1 5.88,7.66 8.0699997,8.0699997 0 0 1 -0.78003,3.28998 z" />
  <rect
     style="opacity:0.2;fill:#3c74f3"
     id="svg_47"
     height="2.72"
     width="76.959999"
     y="213.03999"
     x="562.66998" />
  <rect
     style="opacity:0.2;fill:#3c74f3"
     id="svg_48"
     height="2.72"
     width="76.959999"
     y="219.66"
     x="562.66998" />
  <rect
     style="opacity:0.2;fill:#3c74f3"
     id="svg_49"
     height="2.72"
     width="76.959999"
     y="226.28999"
     x="562.66998" />
  <g
     style="opacity:1;fill:#c1d5ff;fill-opacity:1"
     class=""
     id="svg_50">
    <path
       style="opacity:1;fill:#c1d5ff;fill-opacity:1"
       inkscape:connector-curvature="0"
       id="svg_51"
       d="m 480.89911,299.47003 v 56 c 0,1.66 -3.12,3 -7,3 H 326.17908 c -3.86,0 -7,-1.36 -7,-3 v -56 c 0,-1.67 3.12,-3.37 7,-3.37 h 147.73999 c 3.85999,-5e-5 6.98004,1.69996 6.98004,3.37 z" />
  </g>
  <rect
     style="fill:#3c74f3"
     id="svg_52"
     height="2.72"
     width="76.959999"
     y="316.10001"
     x="389.25" />
  <path
     style="opacity:0.2;fill:#3c74f3"
     inkscape:connector-curvature="0"
     id="svg_53"
     d="m 350.32001,310.12999 a 18.25,18.25 0 0 0 -10.06,33.48 v -1.22 a 4.1399999,4.1399999 0 0 1 3.65,-4.1 7.2399998,7.2399998 0 0 0 12.7,0 4.1399999,4.1399999 0 0 1 3.65,4.1 v 1.3 a 18.25,18.25 0 0 0 -9.94,-33.56 z m 7.15001,23.14 a 7.23,7.23 0 0 1 -14.43001,0 8,8 0 0 1 -0.71,-3.29 7.9400001,7.9400001 0 0 1 4.86,-7.32 2.3900001,2.3900001 0 0 1 -0.38,-1.3 2.4200001,2.4200001 0 0 1 2.41,-2.42 H 349.4 a 2.4100001,2.4100001 0 0 0 -1.93,3.6 h 0.08 a 2.4200001,2.4200001 0 0 1 0,-0.47 3.54,3.54 0 0 1 2.76,-3.11 h 0.09 a 2.4200001,2.4200001 0 0 0 -1.84,1.08 2.3900001,2.3900001 0 0 1 1.32,-0.4 2.4200001,2.4200001 0 0 1 2.42,2.42 2.45,2.45 0 0 1 0,0.27 7.9200001,7.9200001 0 0 1 5.16,11 z" />
  <rect
     style="opacity:0.2;fill:#3c74f3"
     id="svg_54"
     height="2.72"
     width="76.959999"
     y="322.72"
     x="389.25" />
  <rect
     style="opacity:0.2;fill:#3c74f3"
     id="svg_55"
     height="2.72"
     width="76.959999"
     y="329.34"
     x="389.25" />
  <rect
     style="opacity:0.2;fill:#3c74f3"
     id="svg_56"
     height="2.72"
     width="76.959999"
     y="335.95999"
     x="389.25" />
  <g
     style="opacity:1;fill:#c1d5ff;fill-opacity:1"
     class=""
     id="svg_57">
    <path
       style="opacity:1;fill:#c1d5ff;fill-opacity:1"
       inkscape:connector-curvature="0"
       id="svg_58"
       d="m 440.10001,122.7891 v 56 c 0,1.66 -3.12,3 -7,3 H 285.39999 c -3.85,0 -7,-1.36 -7,-3 v -56 c 0,-1.67 3.13,-3.37 7,-3.37 H 433.12 c 3.85998,0 6.98001,1.7 6.98001,3.37 z" />
  </g>
  <rect
     style="fill:#3c74f3"
     id="svg_59"
     height="2.72"
     width="76.959999"
     y="138.50999"
     x="349.35999" />
  <rect
     style="opacity:0.2;fill:#3c74f3"
     id="svg_60"
     height="2.72"
     width="76.959999"
     y="145.13"
     x="349.35999" />
  <rect
     style="opacity:0.2;fill:#3c74f3"
     id="svg_61"
     height="2.72"
     width="76.959999"
     y="151.75"
     x="349.35999" />
  <rect
     style="opacity:0.2;fill:#3c74f3"
     id="svg_62"
     height="2.72"
     width="76.959999"
     y="158.37"
     x="349.35999" />
  <path
     style="opacity:0.2;fill:#3c74f3"
     inkscape:connector-curvature="0"
     id="svg_63"
     d="m 310.4,132.53999 a 18.26,18.26 0 0 0 -10,33.48001 v -3.09 a 4.1500001,4.1500001 0 0 1 3.65,-4.11 7.2399998,7.2399998 0 0 0 12.7,0 4.1399999,4.1399999 0 0 1 3.65,4.11 v 3.16 a 18.25,18.25 0 0 0 -10,-33.55001 z m 8,22.28 a 1.23,1.23 0 0 1 -0.24,0.31 1,1 0 0 1 -0.53,0.18 h -0.37 a 7.25,7.25 0 0 1 -14.19,-2.06 7.1399999,7.1399999 0 0 1 0.95,-3.56 l -0.08,-0.05 a 2.4100001,2.4100001 0 0 1 0.24,-3.35 4.8200002,4.8200002 0 0 1 1.5,-0.55 6.6999998,6.6999998 0 0 0 3.8,-2.91 8,8 0 0 1 0,1.1 1.61,1.61 0 0 1 2.29,-0.08 4.5999999,4.5999999 0 0 0 0.65,0.74 2,2 0 0 0 0.81,0.23 l 1.82,0.23 a 3.48,3.48 0 0 1 2.07,0.75 3.28,3.28 0 0 1 0.69,1.22 18.24,18.24 0 0 1 1.19,3.85 6.1700001,6.1700001 0 0 1 -0.55001,3.93001 z" />
  <g
     style="opacity:1;fill:#c1d5ff;fill-opacity:1"
     class=""
     id="svg_64">
    <path
       style="opacity:1;fill:#c1d5ff;fill-opacity:1"
       inkscape:connector-curvature="0"
       id="svg_65"
       d="m 693.77,386.8 v 56 c 0,1.67 -3.12,3 -7,3 H 539.04002 c -3.86,0 -7,-1.35 -7,-3 v -56 c 0,-1.67 3.12,-3.36 7,-3.36 h 147.75 c 3.85998,-0.05 6.97998,1.64003 6.97998,3.36 z" />
  </g>
  <rect
     style="fill:#3c74f3"
     id="svg_66"
     height="2.72"
     width="76.959999"
     y="403.38"
     x="603.03003" />
  <rect
     style="opacity:0.2;fill:#3c74f3"
     id="svg_67"
     height="2.72"
     width="76.959999"
     y="410"
     x="603.03003" />
  <rect
     style="opacity:0.2;fill:#3c74f3"
     id="svg_68"
     height="2.72"
     width="76.959999"
     y="416.63"
     x="603.03003" />
  <rect
     style="opacity:0.2;fill:#3c74f3"
     id="svg_69"
     height="2.72"
     width="76.959999"
     y="423.25"
     x="603.03003" />
  <path
     style="opacity:0.2;fill:#3c74f3"
     inkscape:connector-curvature="0"
     id="svg_70"
     d="m 564.09,397.42 a 18.25,18.25 0 0 0 -10.06,33.47 v -3.09 a 4.1500001,4.1500001 0 0 1 3.65,-4.1 7.2399998,7.2399998 0 0 0 12.7,0 4.1399999,4.1399999 0 0 1 3.65,4.1 v 3.17 a 18.25,18.25 0 0 0 -9.94,-33.55 z m 8,22.27 a 1.12,1.12 0 0 1 -0.24,0.32 1,1 0 0 1 -0.53,0.18 h -0.38 a 7.2399998,7.2399998 0 1 1 -13.23,-5.62 h -0.08 a 2.4100001,2.4100001 0 0 1 0.24,-3.35 4.8200002,4.8200002 0 0 1 1.5,-0.55 6.6900001,6.6900001 0 0 0 3.8,-2.9 8,8 0 0 1 0,1.1 1.61,1.61 0 0 1 2.29,-0.08 4.1399999,4.1399999 0 0 0 0.65,0.73 1.91,1.91 0 0 0 0.81,0.24 l 1.82,0.23 a 3.4200001,3.4200001 0 0 1 2.07,0.75 3.28,3.28 0 0 1 0.69,1.22 18.059999,18.059999 0 0 1 1.19,3.85 6.1399999,6.1399999 0 0 1 -0.57003,3.88002 z" />
  <path
     inkscape:connector-curvature="0"
     style="fill:url(#linearGradient7890)"
     id="svg_71"
     d="m 519.56,570.28 -21.94,-31.81 c 0,0 -0.41,-7.88 -1.85,-9.72 -1.44,-1.84 -0.31,-5.93 -0.31,-5.93 0,0 1.54,-2.25 0.21,-2.46 -1.33,-0.21 -0.21,-5.22 -0.21,-5.22 l -0.1,-8 c 0,0 1.23,-7.68 0.21,-9.52 a 3,3 0 0 1 0.1,-3.27 c 0,0 1.23,-4.4 0,-5.53 -1.23,-1.13 -0.93,-8 -0.62,-13.4 0.31,-5.4 -2.15,-8.49 -2.15,-9.31 0,-0.82 -8.1,-8.79 -8.1,-9.51 0,-0.72 -5.13,-3.68 -8.21,-4.5 -3.08,-0.82 -4.61,-1.43 -4.51,-1.84 0.1,-0.41 -4.82,-2 -4.82,-2 0,0 -4.3,-0.31 -5.95,-2.45 -1.65,-2.14 -6.65,-2.78 -6.8,-2.79 l -0.09,-0.43 -0.09,-0.46 c 0.38,-0.65 0.74,-1.32 1.07,-2 0.1,-0.21 0.19,-0.41 0.28,-0.62 a 8.78,8.78 0 0 0 5.05,-1.57 6.85,6.85 0 0 0 2.45,-4.91 10.83,10.83 0 0 0 -1.19,-5.45 c -0.9,-1.84 -2.22,-3.75 -1.77,-5.75 0.2,-0.86 0.72,-1.62 1,-2.46 a 6.5,6.5 0 0 0 -0.74,-4.85 c -0.77,-1.48 -1.85,-2.79 -2.72,-4.23 a 16.42,16.42 0 0 1 -2.16,-6 9.24,9.24 0 0 0 -0.8,-3.26 6.24,6.24 0 0 0 -1.8,-1.82 18,18 0 0 0 -11,-3.34 c -2.79,0.1 -5.58,0.85 -8.35,0.51 a 30.6,30.6 0 0 1 -4.87,-1.27 c -3.44,-1 -7.41,-1.44 -10.4,0.53 -2.99,1.97 -4.19,5.84 -6.22,8.87 -1.8,2.67 -4.42,4.92 -5.79,7.76 0,-0.06 0,-0.11 0,-0.17 a 9.86,9.86 0 0 0 -0.76,2.07 14.74,14.74 0 0 0 0.45,6.78 4.72,4.72 0 0 0 1.66,3 c 1,0.65 2.4,0.5 3.59,0.71 -0.05,0.19 -0.1,0.39 -0.14,0.58 a 23,23 0 0 0 -0.51,4.87 23.44,23.44 0 0 0 16.74,22.47 c 0,0.21 0,0.42 0,0.62 a 16.37,16.37 0 0 1 -0.1,1.76 v 0 c 0,0 -10.31,-2.12 -13.07,-0.68 -2.76,1.44 -8.21,2.55 -9,3.37 -0.79,0.82 -2.87,0.21 -4.72,5 -1.85,4.79 -2.05,9.72 -4.4,12 -2.35,2.28 -3.59,3.79 -3.7,5.43 -0.11,1.64 0.31,2 -0.61,2.55 -0.92,0.55 -2.26,2.66 -1.85,3.48 a 2.9,2.9 0 0 1 -1.13,3.07 3.41,3.41 0 0 0 -1.43,3.07 c 0,0 -0.62,2.25 -2.05,2.76 -1.43,0.51 -2.36,3.89 -2.36,3.89 l -4.65,5.35 -9.22,-10.2 a 3.89,3.89 0 0 0 -5.48,-0.28 l -4.54,4.03 a 8.94,8.94 0 0 0 -4.53,2.7 11.75,11.75 0 0 0 -2.34,3.49 l -2.48,2.23 a 6.28,6.28 0 0 0 -0.64,6.95 l 5.91,6.53 v 0.06 a 10.33,10.33 0 0 0 -5.71,2.32 c -8.81,7.78 -8.92,14.94 -7.58,18.21 1.34,3.27 12.51,15.86 12.51,15.86 0,0 6.49,8.44 15.86,12.93 v 0 l -0.07,0.07 c -0.19,0.2 -0.37,0.41 -0.55,0.64 l -0.15,0.2 a 1.43,1.43 0 0 0 -0.14,0.2 l -0.17,0.24 -0.13,0.2 -0.18,0.3 -0.11,0.19 -0.21,0.4 c 0,0 -0.05,0.09 -0.07,0.13 -0.02,0.04 -0.17,0.37 -0.25,0.56 l -0.09,0.21 c 0,0.13 -0.1,0.27 -0.16,0.4 l -0.09,0.27 c 0,0.13 -0.09,0.26 -0.13,0.4 l -0.09,0.29 q -0.06,0.21 -0.12,0.45 c 0,0.09 -0.05,0.18 -0.07,0.27 -0.02,0.09 -0.11,0.49 -0.16,0.74 a 2.5,2.5 0 0 0 0,0.29 4.51,4.51 0 0 0 -0.09,0.53 c 0,0.12 0,0.24 -0.05,0.37 -0.05,0.13 -0.05,0.33 -0.07,0.51 -0.02,0.18 0,0.25 0,0.39 0,0.14 0,0.38 0,0.58 v 0.36 c 0,0.32 0,0.65 0,1 -0.21,12 0.49,13.71 0.49,13.71 a 6.64,6.64 0 0 0 5.44,4.08 7.17,7.17 0 0 0 1.76,-0.09 c 5.33,-0.93 17.84,-3.07 22.25,-2.25 2.65,0.49 7.56,-0.24 11.05,-0.9 l 0.92,-0.18 0.64,2 2,-0.56 1.72,1 1.09,0.62 c 2,6.86 10.24,4.52 10.24,4.52 l 1.95,1.13 19.79,0.51 a 39.78,39.78 0 0 0 7,3.36 6.29,6.29 0 0 0 1,0.22 44.38,44.38 0 0 0 5.51,0.1 c 1.52,0 2.69,-0.1 2.69,-0.1 0,0 -0.2,-5.37 -0.49,-11.39 a 161.45,161.45 0 0 0 18.33,-1.5 c 10.57,-1.86 15,-11.47 16.6,-16.6 a 46.9,46.9 0 0 1 1,6.37 46.46,46.46 0 0 0 1.64,5.52 18.45,18.45 0 0 0 2.26,4.1 c 7.79,-2.66 3.07,-6.65 1.43,-8.39 -1.64,-1.74 1.13,-3.17 1.13,-3.17 0,0 2.16,-1.44 2,-2.77 -0.16,-1.33 -0.31,-2.76 6.67,-2.66 6.98,0.1 6.51,-5.67 6.51,-5.67 z M 411.28,504.96 c 0.09,0.59 1.06,6.89 1.94,8.55 a 10.9,10.9 0 0 1 0.23,3.37 c -4.13,-0.33 -8.43,-0.51 -8.43,-0.51 a 1,1 0 0 1 0.22,0.53 l -0.65,-0.15 -0.95,-0.23 7.62,-11.57 z m -15.08,24 7.15,1.14 0.6,0.09 a 25.52,25.52 0 0 0 -0.37,3.38 c 0,0.1 0.16,0.23 0.39,0.38 a 10.74,10.74 0 0 0 -0.14,1.69 c 0.12,0.57 3.46,1.79 7.3,2.81 -0.06,0.2 -0.11,0.4 -0.16,0.58 v 0 c -3.39,-1.78 -8.72,-2.61 -9.34,-3.93 -0.62,-1.32 -18.76,-7.67 -18.76,-7.67 0,0 -0.67,-0.35 -1.81,-0.9 l 4.78,0.9 1.31,-0.13 a 71.46,71.46 0 0 0 9.05,1.65 z" />
  <path
     style="fill:#65617d"
     inkscape:connector-curvature="0"
     id="svg_72"
     d="m 496.22001,574.73 c 0,0 -2.85,17.18 -17.28,19.72 -14.43,2.53999 -62.6,2 -62.6,2 0,0 -27.54,-4 -37.5,-27.23 -9.96,-23.23 -16.37,-32.53 -7.83,-32.93 8.54,-0.40001 54.58,15.55 57.22,15.75 2.64,0.2 70.52998,-35.33997 67.99,22.69 z" />
  <path
     style="opacity:0.05"
     inkscape:connector-curvature="0"
     id="svg_73"
     d="m 496.22001,574.73 c 0,0 -2.85,17.18 -17.28,19.72 -14.43,2.53999 -62.6,2 -62.6,2 0,0 -27.54,-4 -37.5,-27.23 -9.96,-23.23 -16.37,-32.53 -7.83,-32.93 8.54,-0.40001 54.58,15.55 57.22,15.75 2.64,0.2 70.52998,-35.33997 67.99,22.69 z" />
  <path
     style="fill:#3f3d56"
     inkscape:connector-curvature="0"
     id="svg_74"
     d="m 367.03001,593.8 a 6.5900002,6.5900002 0 0 0 5.36999,4.09998 7,7 0 0 0 1.74,-0.1 c 5.28,-0.91 17.68,-3 22.05,-2.23 2.63,0.49 7.5,-0.24 11,-0.89 2.3,-0.43 4,-0.84 4,-0.84 0,0 -4.06,-13.52 -4.57,-13.92 -0.51,-0.4 -18.32998,-11.11998 -18.32998,-11.11998 l -14.09,-1 v 0 a 7.4099998,7.4099998 0 0 0 -4.77,2.81 c -1.49,1.8 -2.77,4.75 -2.85,9.59 -0.25003,11.91 0.44999,13.6 0.44999,13.6 z" />
  <path
     style="opacity:0.05"
     inkscape:connector-curvature="0"
     id="svg_75"
     d="m 367.03001,593.8 a 6.5900002,6.5900002 0 0 0 5.36999,4.09998 57.66,57.66 0 0 1 -3.82,-5.58 l 0.07,-9.86 A 17.379999,17.379999 0 0 1 374.19999,567.8 v 0 c 0,0 -7.42,0.51 -7.62,12.4 -0.2,11.89 0.45002,13.6 0.45002,13.6 z" />
  <path
     style="opacity:0.1"
     inkscape:connector-curvature="0"
     id="svg_76"
     d="m 428.13001,572.28999 13.11,-10.26 20.63,-20.33 -5.59,-0.25 c -0.84,0.53 -3.18,2.21 -3.27,4.25 -0.1,2.48 -5.57,0.17 -8.42,1.59 -2.85,1.42 -16.77,19.23999 -19.19001,19.13001 -2.42001,-0.10999 -4.37,-1.24 -5.38,0.49 a 1,1 0 0 1 -0.08,0.11 z" />
  <path
     style="opacity:0.1"
     inkscape:connector-curvature="0"
     id="svg_77"
     d="m 369.4,570.63002 1.42,0.65 c 10,4.27 22.25,13.21 23.17,14.84 0.56,1 7.69,5.32 13.19,8.56 2.3,-0.43 4,-0.84 4,-0.84 0,0 -4.06,-13.52 -4.57,-13.92 C 406.1,579.52002 388.29002,568.8 388.29002,568.8 l -14.09,-1 v 0 A 7.4099998,7.4099998 0 0 0 369.4,570.63002 Z" />
  <path
     style="fill:#65617d"
     inkscape:connector-curvature="0"
     id="svg_78"
     d="m 341.74,541.50002 c 1.32,3.25 12.4,15.75 12.4,15.75 0,0 7,9.14999 17,13.42 10,4.27 22.26,13.21 23.17,14.84 0.59,1 8.53,5.82 14.12,9.11 l 1.26,0.73 2.77,1.61 1.47,0.84 c 0,0 3.4,-2.73 6.79,-5.48 3.39,-2.75 6.68,-5.44 6.73,-5.59001 0.1,-0.31 1.42,-3.76 1.11,-4 -0.16,-0.1 -0.85,-1.51 -2.14,-3.14 a 14.41,14.41 0 0 0 -5.17,-4.28 14.68,14.68 0 0 1 -6.71,-7 c 0,0 -0.45,-0.32 -1.12,-0.75 a 13.6,13.6 0 0 0 -4.57,-2 c -2.24,-0.28 -6.4,-4.85 -6.4,-4.85 a 12.53,12.53 0 0 1 -4,-4.17 c -1.07,-2.23 -16.83,-13 -18.29,-14 l 38.24,24.48997 9.15,5.87 13.11,-10.26 20.63,-20.33 -6.81,-0.3 c -10,-0.44 -27.83,-1.12 -30.08,-0.61 a 17,17 0 0 1 -5.59,0.36 c 0,0 -5.08,0.23 -8.43,-1.54 -3.35,-1.77 -8.65,-2.6 -9.26,-3.91 -0.61,-1.31 -18.6,-7.62 -18.6,-7.62 0,0 -24.49,-13 -33.23,-5.28 -8.74,7.72 -8.89,14.84004 -7.55,18.09004 z" />
  <path
     style="fill:#ee8e9e"
     inkscape:connector-curvature="0"
     id="svg_79"
     d="m 420.71,466.89998 3.15,10.47 4.06,23.58 14.94,1 4.33,-7.18 4.31,-7.15 c 0,0 2.69,-9.53 4.63,-18.75 1.71,-8.15 2.82,-16.07 1,-16.93 -1.65,-0.76 -2.73,-3.51 -3.44,-6.46 -0.09,-0.36 -0.17,-0.73 -0.24,-1.1 a 57.52,57.52 0 0 1 -1,-7.58 c 0,0 -31.31,-1.63 -26.94,11.28 a 20.379999,20.379999 0 0 1 1.18,6.86 16.33,16.33 0 0 1 -0.1,1.75 14.63,14.63 0 0 1 -5.88,10.21 z" />
  <path
     style="fill:#e3e8f4"
     inkscape:connector-curvature="0"
     id="svg_80"
     d="m 414.19999,465.17 1.12,17.79 2.54,15.14 2.85,7 2.54,38.36 c 0,0 24.5,2.84 30.46,0 a 2.6099999,2.6099999 0 0 0 1.08,-0.84 c 7.2,-10.87 4.84,-42.35 4.84,-42.35 l 2.77001,-20.36001 -1.83,-10.55 -4.42,-0.47 -3.41,-0.36 c 0,0 -0.77,0.94 -1.87,2.41 -3,4 -8.56,11.8 -8.19,15.07 0.51,4.47 -0.61,9 -2.34,9.75 -1.73,0.75 -3.15,1.94 -3.45,0.72 a 5.5,5.5 0 0 1 -0.31,-3.25 c 0.31,-1.73 -1.32,-7 -1.32,-7 0,0 -2.74,-6.2 -2.54,-8.84 0.2,-2.64 -0.3,-5.69 -1.12,-6.4 -0.82,-0.71 -1.93,-1.43 -1,-4.68 0.93,-3.25 -4,-9.58 -4,-9.58 z" />
  <path
     style="opacity:0.1"
     inkscape:connector-curvature="0"
     id="svg_81"
     d="m 446.57001,509.58998 1,30.39 5.87,3.26 a 2.54,2.54 0 0 0 1.08,-0.85 c 7.2,-10.87 4.84001,-42.35 4.84001,-42.35 l 2.74,-20.33 -1.83,-10.55 -4.42001,-0.47 c 1.71,-8.15 2.83,-16.06 1,-16.92 -1.65,-0.77 -2.74,-3.51 -3.44,-6.46 v 0 L 450.22999,466.8 c 0,0 0.27,1.93 0.36,3.93 a 11.13,11.13 0 0 1 -0.26,3.79 c -0.71,1.83 -0.2,5.08 -0.2,5.08 -1.83,3.23 -2.75,9.21 -3.19,15 -0.59999,7.67998 -0.36998,14.98998 -0.36998,14.98998 z" />
  <path
     style="fill:#3f3d56"
     inkscape:connector-curvature="0"
     id="svg_82"
     d="m 453.50001,444.8 c 0,0 5.12,0.64 6.74,2.77 1.62,2.13 5.9,2.44 5.9,2.44 0,0 4.88,1.63 4.77,2 -0.11,0.37 1.43,1 4.48,1.83 3.05,0.83 8.13,3.76 8.13,4.48 0,0.72 8,8.63 8,9.45 0,0.82 2.43,3.86 2.13,9.25 -0.3,5.39 -0.61,12.19 0.61,13.31 1.22,1.12 0,5.49 0,5.49 a 3,3 0 0 0 -0.1,3.25 c 1,1.83 -0.21,9.45 -0.21,9.45 l 0.11,7.93 c 0,0 -1.12,5 0.2,5.18 1.32,0.18 -0.2,2.44 -0.2,2.44 0,0 -1.12,4.07 0.3,5.9 1.42,1.83 1.83,9.65 1.83,9.65 l 21.75,31.61 c 0,0 0.3,5.79 -6.61,5.69 -6.91,-0.1 -6.81,1.32 -6.6,2.64 0.21,1.32 -1.93,2.75 -1.93,2.75 0,0 -2.75,1.42 -1.12,3.15 1.63,1.73 6.3,5.69 -1.42,8.33 a 18.379999,18.379999 0 0 1 -2.24,-4.06 47.34,47.34 0 0 1 -1.63,-5.49 c 0,0 -0.71,-7.73 -2.13,-8.74 -1.42,-1.01 -1.22,-5.9 -1.22,-5.9 0,0 2,-4 -0.81,-5.59 -2.81,-1.59 -44.11,-24.49 -44.11,-24.49 l -1,-30.39 c 0,0 -0.71,-22.45999 3.56,-30 0,0 -0.51,-3.25 0.2,-5.08 0.71,-1.83 -0.1,-7.73 -0.1,-7.73 z" />
  <path
     style="opacity:0.1"
     inkscape:connector-curvature="0"
     id="svg_83"
     d="m 426.85999,457.01997 c 0,0 -10.22,-2.11 -13,-0.69 -2.78,1.42 -8.13,2.54 -8.94,3.36 -0.81,0.82 -2.85,0.2 -4.68,5 -1.83,4.8 -2,9.65 -4.37,11.89 -2.37,2.24 -3.56,3.76 -3.66,5.38 -0.1,1.62 0.31,2 -0.61,2.54 -0.92,0.54 -2.23,2.65 -1.83,3.46 0.4,0.81 21.14,18.7 21.14,18.7 0,0 1,6.81 1.93,8.54 0.93,1.73 -1,25.51001 -3.05,27.13 -2.05,1.62 13.76001,1.47003 13.76001,1.47003 0,0 0.72,-15.6 1.33,-16.42 0.61,-0.82 -0.41,-17.48 -0.41,-17.48 0,0 -0.1,-14.23 1.22,-18 1.32,-3.77 1.17,-16.26 1.17,-16.26 0,0 1.17,-7.5 2.59,-9.25 1.42,-1.75 -2.59001,-9.37003 -2.59001,-9.37003 z" />
  <path
     style="fill:#3f3d56"
     inkscape:connector-curvature="0"
     id="svg_84"
     d="m 426.56001,456.70998 c 0,0 -10.22001,-2.1 -13,-0.68 -2.78,1.42 -8.13,2.54 -8.94,3.35 -0.81,0.81 -2.85,0.21 -4.67,5 -1.82,4.79 -2,9.66 -4.37,11.89 -2.37,2.23 -3.56,3.76 -3.66,5.39 -0.1,1.63 0.3,2 -0.61,2.54 -0.91,0.54 -2.24,2.64 -1.83,3.46 0.41,0.82 21.13999,18.7 21.13999,18.7 0,0 1,6.81 1.93,8.53 0.93,1.72 -1,25.51 -3.05,27.14 -2.05,1.63 13.72001,1.47 13.72001,1.47 0,0 0.71,-15.6 1.32,-16.41 0.61,-0.81 -0.41,-17.48 -0.41,-17.48 0,0 -0.1,-14.23 1.22,-18 1.32,-3.77 1.18,-16.26 1.18,-16.26 0,0 1.16,-7.5 2.58,-9.25 1.42,-1.75 -2.55,-9.39 -2.55,-9.39 z" />
  <path
     style="opacity:0.1"
     inkscape:connector-curvature="0"
     id="svg_85"
     d="m 425.47999,448.09999 a 20.379999,20.379999 0 0 1 1.18,6.86 23.280001,23.280001 0 0 0 26.74001,-10.56001 57.52,57.52 0 0 1 -1,-7.58 c 0,0 -31.29001,-1.62996 -26.92001,11.28001 z" />
  <path
     style="fill:#ee8e9e"
     inkscape:connector-curvature="0"
     id="svg_86"
     d="m 410.04002,432.03999 a 23.219999,23.219999 0 1 0 0.5,-4.84 23.27,23.27 0 0 0 -0.5,4.84 z" />
  <path
     style="fill:#3f3d56"
     inkscape:connector-curvature="0"
     id="svg_87"
     d="m 395.10001,485.90999 -5.59,1.73 a 2.8800001,2.8800001 0 0 1 -1.12,3 3.3900001,3.3900001 0 0 0 -1.42,3 c 0,0 -0.61,2.24 -2,2.75 -1.39,0.51 -2.33,3.86 -2.33,3.86 l -4.68,5.39 c 0,0 -1.73,1.42 -1.42,2.13 0.31,0.71 -1.83,0.91 -1.83,0.91 l 1.12,18.1 9.65,1.82 6,-0.61 4.88,-1.82 4.27,-2.55 1.93,-5 8.53,-13 z" />
  <path
     style="fill:#ee8e9e"
     inkscape:connector-curvature="0"
     id="svg_88"
     d="m 376.09,510.20003 c 0,0 -12.4,-17.89 -21.65,-8.23 -9.25,9.66 3.76,25.3 6.81,24.79 3.05,-0.51 17.59,-1.32 17.59,-1.32 z" />
  <path
     style="opacity:0.1"
     inkscape:connector-curvature="0"
     id="svg_89"
     d="m 410.54002,427.20003 a 2.8199999,2.8199999 0 0 1 1.71,0.77 c 0.78,0.83 0.82,2.3 1.85,2.82 a 2.1600001,2.1600001 0 0 0 1.21,0.14 c 2.7,-0.39 4.26,-3.44 6.86,-4.28 a 7,7 0 0 1 4.55,0.39 3.46,3.46 0 0 1 1.5,1 c 0.87,1.13 0.26,2.78 0.66,4.14 0.56,1.89 2.81,2.64 4.77,2.88 1.96,0.24 4.15,0.39 5.45,1.86 a 5,5 0 0 1 1,3.93 3.1400001,3.1400001 0 0 0 0,1.46 c 0.54,1.52 3.18,1.3 3.87,0.09 0.5,-0.87 0.35,-1.6 1.53,-1.84 a 5,5 0 0 1 2.49,0.43 18.110001,18.110001 0 0 0 6.44,1 23.280001,23.280001 0 1 0 -43.84,-14.74 z" />
  <path
     style="fill:#3f3d56"
     inkscape:connector-curvature="0"
     id="svg_90"
     d="m 440.05,441.67 a 3.1400001,3.1400001 0 0 1 0,-1.46 5,5 0 0 0 -1,-3.93 c -1.3,-1.47 -3.5,-1.61 -5.45,-1.86 -1.95,-0.25 -4.21,-1 -4.77,-2.88 -0.4,-1.36 0.21,-3 -0.66,-4.14 a 3.3499999,3.3499999 0 0 0 -1.5,-1 7,7 0 0 0 -4.55,-0.4 c -2.6,0.84 -4.16,3.89 -6.86,4.28 a 2.1700001,2.1700001 0 0 1 -1.21,-0.14 c -1,-0.52 -1.07,-2 -1.85,-2.82 -1.24,-1.31 -3.58,-0.47 -5.09,-1.44 a 4.6300001,4.6300001 0 0 1 -1.64,-3 14.57,14.57 0 0 1 -0.45,-6.74 c 0.88,-3.78 4.26,-6.37 6.42,-9.6 2,-3 3.14,-6.81 6.16,-8.81 3.01999,-2 6.9,-1.54 10.31,-0.53 a 28.860001,28.860001 0 0 0 4.83,1.27 c 2.74,0.34 5.5,-0.41 8.27,-0.5 a 17.719999,17.719999 0 0 1 10.92,3.32 6,6 0 0 1 1.78,1.8 9.0799999,9.0799999 0 0 1 0.8,3.24 16.440001,16.440001 0 0 0 2.14,5.94 c 0.86,1.43 1.93,2.73 2.7,4.21 a 6.4299998,6.4299998 0 0 1 0.73,4.81 c -0.26,0.84 -0.77,1.59 -1,2.45 -0.45,2 0.86,3.88 1.75,5.71 a 10.78,10.78 0 0 1 1.19,5.42 6.8400002,6.8400002 0 0 1 -2.44,4.87 8.7200003,8.7200003 0 0 1 -5.15,1.56 18.33,18.33 0 0 1 -6.57,-1 5,5 0 0 0 -2.48,-0.43 c -1.19,0.24 -1,1 -1.54,1.84 -0.61001,1.25999 -3.25,1.48002 -3.79,-0.04 z" />
  <path
     style="opacity:0.1"
     inkscape:connector-curvature="0"
     id="svg_91"
     d="m 427.52,572.89998 13.11,-10.26 20.63,-20.33 -6.81,-0.3 a 4.4400001,4.4400001 0 0 0 -1.44,2.77 c -0.1,2.49 -5.57,0.18 -8.42,1.6 -2.85,1.42 -16.76999,19.24003 -19.19,19.12004 -2.42001,-0.12 -4.37,-1.23 -5.38,0.49 l -0.08,0.12 a 2.8900001,2.8900001 0 0 1 -1.55,0.92 z" />
  <path
     style="fill:#65617d"
     inkscape:connector-curvature="0"
     id="svg_92"
     d="m 401.09,572.19002 6.59,21 1,3.3 3.14,-0.86 6.92,-1.9 30.8,-8.46 a 26.719999,26.719999 0 0 0 11.09,-3 33.529999,33.529999 0 0 1 19.14,-4.18 c 4.07,0.38 8.6,-1.37 12.36,-8.32 0,0 8.53,-25.2 -13,-32.41 -21.53,-7.21 -22.58,3.83 -22.58,3.83 l -0.29,0.18 c -0.84,0.53 -3.18,2.21 -3.27,4.25 -0.1,2.48 -5.57,0.17 -8.42,1.59 -2.85,1.42 -16.74999,19.31996 -19.17,19.20998 -2.42001,-0.10999 -4.37,-1.24 -5.38,0.49 a 1,1 0 0 1 -0.08,0.11 c -0.75,1 -3,1.28 -4.51,1.32 -0.82,0 -1.41,0 -1.41,0 l -0.19,0.06 -1.56,0.46 z" />
  <path
     style="opacity:0.1"
     inkscape:connector-curvature="0"
     id="svg_93"
     d="m 402.8,531.33998 3.17,0.51 1.32,-13.11 c 0,0 -1.45,-0.22 -3.27,-0.64 0.48001,1.82002 -0.62,8.90004 -1.22,13.24 z" />
  <path
     style="opacity:0.1"
     inkscape:connector-curvature="0"
     id="svg_94"
     d="m 485.9,470.08003 c 0,0 9.45,-2.74 7.12,24.09 -2.33,26.83 -19.82,43.8 -19.82,43.8 0,0 -20.13,8.84 -29.17,7.42 -9.04,-1.42 -15.63,-1.73004 -15.63,-1.73004 a 23.129999,23.129999 0 0 0 -9.15,-2.44 c -5.08,-0.2 -15.75,-3.35 -16,-4.37 -0.25,-1.02 2.65,-15.95 1.43,-17.07 0,0 14.23,0.58 15.65,1.61 1.42,1.03 3.45,0.29 5,0 1.55,-0.29 6.2,-4.35 15.45,-0.8 0,0 3.15,0.31 4.37,-0.51 a 4.3800001,4.3800001 0 0 1 3.18,-0.2 8.7399998,8.7399998 0 0 0 2.2,-1.12 c 0.31,-0.4 2.75,0 2.75,0 a 1.08,1.08 0 0 0 1.52,-0.71 6.6599998,6.6599998 0 0 1 1.42,-2.23 c 0,0 2.75,-15.45 7.93,-21.24 a 3.3199999,3.3199999 0 0 0 1.12,-2.95 c -0.41001,-1.62997 8.42999,-24.82999 20.63,-21.54996 z" />
  <path
     style="opacity:0.1"
     inkscape:connector-curvature="0"
     id="svg_95"
     d="m 412.25001,568.84999 13.42,16.25 0.09,-0.1 c 0.1,-0.3 1.42,-3.76 1.11,-4 -0.31,-0.24 -2.64,-5.29 -7.32,-7.42 a 13.93,13.93 0 0 1 -5.74,-5.23 z" />
  <path
     style="opacity:0.1"
     inkscape:connector-curvature="0"
     id="svg_96"
     d="m 412.4,596.95998 1.47,0.84 c 0,0 3.4,-2.73 6.79,-5.48 3.39,-2.75 6.68,-5.44 6.73,-5.59 0.1,-0.31 1.42,-3.76 1.11,-4 -0.16,-0.1 -0.85,-1.51 -2.14,-3.14 -9.1,-2.55 -3.3,3.77 -2.53,4.06 0,0 -11.08,-2.54 -11.69,9.52 a 14.4,14.4 0 0 0 0.26,3.79 z" />
  <path
     style="fill:#3f3d56"
     inkscape:connector-curvature="0"
     id="svg_97"
     d="m 423.65,602.07002 1.94,1.12 19.61,0.51 a 39.610001,39.610001 0 0 0 6.94,3.34 6.4400001,6.4400001 0 0 0 1,0.22 45.73,45.73 0 0 0 5.47,0.1 c 1.5,0 2.66,-0.1 2.66,-0.1 0,0 -0.93,-24.74 -1.63,-27.34 -0.33,-1.25 -2,-1 -3.6,-0.35 a 23.209999,23.209999 0 0 0 -3.51,1.78 c 0,0 -8.33,0.8 -9.66,1.52 -1.33,0.72 -5.08,-0.41 -7.42,0 -2.34,0.41 -6.5,-2.75 -6.5,-2.75 -11.38,-3.76 -5,3.25 -4.17,3.56 0,0 -11.07,-2.54 -11.68,9.52 -0.61,12.06 10.55,8.87 10.55,8.87 z" />
  <path
     style="fill:#565387"
     inkscape:connector-curvature="0"
     id="svg_98"
     d="m 452.00999,592.51997 c 0.21,5.12 4.2,11.48 6.59,14.84 1.5,0 2.66,-0.1 2.66,-0.1 0,0 -0.93,-24.74 -1.63,-27.34 -0.33,-1.25 -2,-1 -3.6,-0.35 -1.96998,3.69006 -4.18999,8.82006 -4.02,12.95 z" />
  <path
     style="opacity:0.1"
     inkscape:connector-curvature="0"
     id="svg_99"
     d="m 452.00999,592.51997 c 0.21,5.12 4.2,11.48 6.59,14.84 1.5,0 2.66,-0.1 2.66,-0.1 0,0 -0.93,-24.74 -1.63,-27.34 -0.33,-1.25 -2,-1 -3.6,-0.35 -1.96998,3.69006 -4.18999,8.82006 -4.02,12.95 z" />
  <path
     style="opacity:0.05"
     inkscape:connector-curvature="0"
     id="svg_100"
     d="m 448.66001,593.20003 c 1.35,4.94 1.33,10.49 3.48,13.84 a 6.4400001,6.4400001 0 0 0 1,0.22 45.73,45.73 0 0 0 5.47,0.1 c 1.5,0 2.66,-0.1 2.66,-0.1 0,0 -0.93,-24.74 -1.63,-27.34 -0.33,-1.25 -2,-1 -3.6,-0.35 a 23.209999,23.209999 0 0 0 -3.51,1.78 c 0,0 -5.60001,5.51998 -3.87,11.85 z" />
  <path
     style="opacity:0.1"
     inkscape:connector-curvature="0"
     id="svg_101"
     d="m 380.99,543.06001 c 0,0 9.74,3.16 18,14.39 z" />
  <g
     style="opacity:0.1"
     id="svg_102">
    <path
       inkscape:connector-curvature="0"
       id="svg_103"
       d="m 460.16001,421.09999 -0.06,0.22 a 6.8499999,6.8499999 0 0 1 -0.34,0.85 6,6 0 0 1 0.4,-1.07 z" />
    <path
       inkscape:connector-curvature="0"
       id="svg_104"
       d="m 405.04002,416.17 a 9.1400003,9.1400003 0 0 1 0.75,-2 c -0.05,0.17 -0.1,0.35 -0.14,0.53 a 14.58,14.58 0 0 0 0.45,6.74 4.6300001,4.6300001 0 0 0 1.64,3 c 1.51,1 3.85,0.13 5.08,1.43 0.79,0.83 0.83,2.31 1.85,2.82 a 2,2 0 0 0 1.22,0.14 c 2.7,-0.38 4.26,-3.43 6.86,-4.27 a 6.8600001,6.8600001 0 0 1 4.54,0.39 3.3499999,3.3499999 0 0 1 1.51,1 c 0.87,1.12 0.26,2.78 0.66,4.14 0.56,1.88 2.81,2.63 4.76,2.88 1.95,0.25 4.15,0.38 5.46,1.86 a 4.9200001,4.9200001 0 0 1 1,3.93 3.23,3.23 0 0 0 0,1.45 c 0.54,1.53 3.18,1.3 3.87,0.1 0.5,-0.88 0.35,-1.6 1.53,-1.85 a 5.0999999,5.0999999 0 0 1 2.49,0.43 18.309999,18.309999 0 0 0 6.57,1 8.8599997,8.8599997 0 0 0 5.15,-1.56 6.1500001,6.1500001 0 0 0 1.58,-1.93 6.5,6.5 0 0 1 -2.19,3.45 8.7200003,8.7200003 0 0 1 -5.15,1.56 18.299999,18.299999 0 0 1 -6.57,-1 5,5 0 0 0 -2.49,-0.43 c -1.18,0.24 -1,1 -1.53,1.84 -0.69,1.21 -3.33,1.43 -3.87,-0.09 a 3.27,3.27 0 0 1 0,-1.46 4.9200001,4.9200001 0 0 0 -1,-3.93 c -1.31,-1.47 -3.5,-1.61 -5.46,-1.86 -1.96,-0.25 -4.2,-1 -4.76,-2.88 -0.4,-1.36 0.21,-3 -0.66,-4.14 a 3.3499999,3.3499999 0 0 0 -1.5,-1 7,7 0 0 0 -4.55,-0.4 c -2.6,0.84 -4.16,3.89 -6.86,4.28 a 2.2,2.2 0 0 1 -1.22,-0.14 c -1,-0.52 -1.06,-2 -1.85,-2.82 -1.23,-1.31 -3.57,-0.47 -5.08,-1.44 a 4.6300001,4.6300001 0 0 1 -1.64,-3 14.57,14.57 0 0 1 -0.45,-6.77 z" />
  </g>
  <path
     style="opacity:0.1"
     inkscape:connector-curvature="0"
     id="svg_105"
     d="m 461.72999,497.51997 c -1.86,2.51 -4,4.84 -5.63,7.5 a 14.23,14.23 0 0 0 -2.47,8.87 c 1.7,-1.75 2.48,-4.17 3.56,-6.36 1.82,-3.72 4.54,-6.87 6.83,-10.28 0.44,-0.65 3.25,-4.42 1.83,-4.6 -1.16999,-0.14995 -3.44999,4.01002 -4.12,4.87 z" />
  <path
     style="fill:#c1d5ff;fill-opacity:1"
     inkscape:connector-curvature="0"
     class="selected"
     id="svg_106"
     d="m 410.28001,456.48 20.37,38.52 c 0.61,1.14 -1.05,3.21 -3.7,4.62 l -101.67,53.77003 c -2.65,1.4 -5.3,1.61 -5.9,0.46 l -20.37,-38.51 c -0.61,-1.15 0.92,-3.46 3.57,-4.86 l 101.66999,-53.77 c 2.66001,-1.41003 5.43,-1.38 6.03001,-0.23003 z" />
  <rect
     style="fill:#3c74f3"
     id="svg_109"
     transform="rotate(-27.87)"
     height="2.1099999"
     width="59.91"
     y="608.31451"
     x="78.618431" />
  <rect
     style="opacity:0.2;fill:#3c74f3"
     id="svg_110"
     transform="rotate(-27.87)"
     height="2.1099999"
     width="59.91"
     y="613.47717"
     x="78.61702" />
  <rect
     style="opacity:0.2;fill:#3c74f3"
     id="svg_111"
     transform="rotate(-27.87)"
     height="2.1099999"
     width="59.91"
     y="618.62097"
     x="78.620277" />
  <rect
     style="opacity:0.2;fill:#3c74f3"
     id="svg_112"
     transform="rotate(-27.87)"
     height="2.1099999"
     width="59.91"
     y="623.78363"
     x="78.618851" />
  <path
     style="opacity:0.2;fill:#3c74f3"
     inkscape:connector-curvature="0"
     id="svg_113"
     d="m 324.93,511.01997 a 14.2,14.2 0 0 0 5.26,26.69 l -1.12,-2.12 a 3.23,3.23 0 0 1 1,-4.16 5.6300001,5.6300001 0 0 0 8.74,-4.62 3.24,3.24 0 0 1 4,1.5 l 1.15,2.18 a 14.2,14.2 0 0 0 -19.05,-19.46999 z m 13.63,12.41 a 0.75999999,0.75999999 0 0 1 -0.05,0.3 0.83999997,0.83999997 0 0 1 -0.3,0.32 l -0.25,0.14 a 5.6399999,5.6399999 0 1 1 -11.16,1 h -0.07 a 1.89,1.89 0 0 1 -1.05,-2.4 3.6099999,3.6099999 0 0 1 0.83,-0.92 5.21,5.21 0 0 0 1.56,-3.38 6,6 0 0 1 0.37,0.77 1.26,1.26 0 0 1 1.54,-0.89 4.2199998,4.2199998 0 0 0 0.72,0.27 1.64,1.64 0 0 0 0.65,-0.13 l 1.33,-0.51 a 2,2 0 0 1 2.62,0.36 14.5,14.5 0 0 1 2.22,2.21 4.79,4.79 0 0 1 1.04001,2.86004 z" />
  <path
     style="fill:#ee8e9e"
     inkscape:connector-curvature="0"
     id="svg_114"
     d="m 368.06001,513.95998 c -0.1,13.41 27.64999,16.26 27.64999,16.26 l 7.09,1.12 3.17001,0.51 1.32,-13.11 c 0,0 -1.45,-0.22 -3.27,-0.64 -2.68,-0.63 -6.16,-1.71 -6.89,-3.23 -1.22,-2.53995 -28.97,-14.32999 -29.07,-0.91 z" />
  <path
     style="fill:#3f3d56"
     inkscape:connector-curvature="0"
     id="svg_115"
     d="m 485.65,468.01997 c 0,0 9.45,-2.74 7.12,24.09 -2.33,26.83 -19.82,43.8 -19.82,43.8 0,0 -20.13,8.84 -29.17,7.42 -9.04,-1.42 -15.65,-1.73 -15.65,-1.73 a 23.129999,23.129999 0 0 0 -9.15,-2.44 c -5.08,-0.2 -15.75,-3.35 -16,-4.37 -0.25,-1.02 2.65,-16 1.43,-17.07 0,0 14.23,0.58 15.65,1.61 1.42,1.03 3.45,0.29 5,0 1.55,-0.29 6.2,-4.36 15.45,-0.8 0,0 3.15,0.31 4.37,-0.51 a 4.3800001,4.3800001 0 0 1 3.18,-0.2 8.7399998,8.7399998 0 0 0 2.2,-1.12 c 0.31,-0.4 2.75,0 2.75,0 a 1.0700001,1.0700001 0 0 0 1.52,-0.71 6.7600002,6.7600002 0 0 1 1.42,-2.24 c 0,0 2.75,-15.44 7.93,-21.24 a 3.29,3.29 0 0 0 1.12,-2.94 c -0.39001,-1.62995 8.46,-24.76997 20.65,-21.55 z" />
  <path
     style="fill:#ffffff"
     inkscape:connector-curvature="0"
     id="svg_116"
     d="m 878.16001,136.14 v 56 c 0,1.67 -3.12,3 -7,3 H 723.4 c -3.86,0 -7,-1.35 -7,-3 v -56 c 0,-1.67 3.12,-3.37 7,-3.37 h 147.78003 c 3.85999,0.03 6.97998,1.70002 6.97998,3.37 z" />
  <g
     style="opacity:0.1"
     class=""
     id="svg_117">
    <path
       style="fill:#3c74f3"
       inkscape:connector-curvature="0"
       id="svg_118"
       d="m 876.30458,137.23909 v 56 c 0,1.66 -3.13,3 -7,3 H 721.57454 c -3.86,0 -7,-1.36 -7,-3 v -56 c 0,-1.67 3.12,-3.37 7,-3.37 h 147.75 c 3.85004,1e-5 6.98004,1.69999 6.98004,3.37 z" />
  </g>
  <path
     style="fill:#c1d5ff;fill-opacity:1"
     inkscape:connector-curvature="0"
     class=""
     id="svg_119"
     d="m 879.0691,136.14 v 56 c 0,1.67 -3.12,3 -7,3 H 724.30909 c -3.86,0 -7,-1.35 -7,-3 v -56 c 0,-1.67 3.12,-3.37 7,-3.37 h 147.78003 c 3.85999,0.03 6.97998,1.70002 6.97998,3.37 z" />
  <rect
     style="fill:#3c74f3"
     id="svg_122"
     height="2.72"
     width="76.959999"
     y="152.77"
     x="787.41998" />
  <rect
     style="opacity:0.2;fill:#3c74f3"
     id="svg_123"
     height="2.72"
     width="76.959999"
     y="159.39"
     x="787.41998" />
  <rect
     style="opacity:0.2;fill:#3c74f3"
     id="svg_124"
     height="2.72"
     width="76.959999"
     y="166.00999"
     x="787.41998" />
  <rect
     style="opacity:0.2;fill:#3c74f3"
     id="svg_125"
     height="2.72"
     width="76.959999"
     y="172.63"
     x="787.41998" />
  <path
     style="opacity:0.2;fill:#3c74f3"
     inkscape:connector-curvature="0"
     id="svg_126"
     d="M 748.49003,146.8 A 18.25,18.25 0 0 0 738.4,180.28001 v -3.09 a 4.1599998,4.1599998 0 0 1 3.65,-4.11 7.2399998,7.2399998 0 0 0 12.7,0 4.1599998,4.1599998 0 0 1 3.65,4.11 v 3.17 A 18.25,18.25 0 0 0 748.49003,146.8 Z m 8,22.27 a 0.79000002,0.79000002 0 0 1 -0.77,0.49 2.3,2.3 0 0 1 -0.37,0 7.2399998,7.2399998 0 0 1 -14.18,-2.06 7.1599998,7.1599998 0 0 1 0.94,-3.56 l -0.08,-0.05 a 2.4200001,2.4200001 0 0 1 0.24,-3.35 4.9099998,4.9099998 0 0 1 1.5,-0.55 6.6500001,6.6500001 0 0 0 3.8,-2.9 6.79,6.79 0 0 1 0,1.1 1.61,1.61 0 0 1 2.29,-0.08 c 0.23,0.23 0.38,0.55 0.66,0.73 a 1.73,1.73 0 0 0 0.81,0.23 l 1.81,0.24 a 2.5599999,2.5599999 0 0 1 2.76,2 17.51,17.51 0 0 1 1.19,3.85 6.0799999,6.0799999 0 0 1 -0.58004,3.92 z" />
  <path
     inkscape:connector-curvature="0"
     style="fill:url(#ffba99e4-d350-4cb7-a6ec-0715674198cb)"
     id="svg_127"
     d="m 924.97,594.22 c -1.38,-5 -2.28,-9.38 -2.28,-9.38 0,0 0.06,-5.49 -2.56,-9.51 l -0.05,-1.37 v 0 l -0.4,-10.16 a 34.22,34.22 0 0 1 2.36,-5.4 c 1.7,-3.25 -0.57,-14.85 -0.57,-14.85 0,0 -7.4,-16.19 -6.15,-26.68 1.25,-10.49 -15.67,-45.79 -15.67,-45.79 a 46,46 0 0 1 1.07,-10.28 8.18,8.18 0 0 0 0.11,-2.16 2.26,2.26 0 0 0 0,-0.26 c 0,0 0,0 0,0.08 -0.5,-6.87 -6.43,-19.55 -6.43,-19.55 l -0.22,-24.61 c 0,0 2.92,-14.63 -3.5,-33.86 -2.24,-6.71 -3.71,-12.1 -4.67,-16.26 -0.11,-0.47 -0.22,-0.92 -0.31,-1.36 11.59,-2.22 20.43,-4 20.43,-4 0,0 -7.84,-28 -12.6,-32.8 -4.76,-4.8 -9,-20.19 -9,-20.19 0,0 -3.14,-19.89 0.47,-25.87 3.61,-5.98 3.75,-16.16 3.75,-16.16 0,0 8.52,-6.71 9.51,-9.58 0.99,-2.87 2.57,-9.31 2.44,-12.66 -0.13,-3.35 -1.34,-6.33 -1,-8.11 0.34,-1.78 -2.89,-8.39 -1.55,-11.63 a 8.62,8.62 0 0 0 0.47,-3.09 v -0.13 a 43.13,43.13 0 0 0 -1.09,-8.26 23.54,23.54 0 0 0 -8.86,-4.31 l -0.22,-0.75 -0.57,-2 c -0.3,-0.18 -0.59,-0.34 -0.88,-0.48 v -0.72 l -0.19,-2.87 1.12,-6.51 c 2.27,-11.33 -12.78,-12.43 -12.78,-12.43 a 7.82,7.82 0 0 0 -4.38,-3.55 c -3.06,-1 0.14,16.91 1.6,18 1.09,0.82 4.58,6.32 6.26,9 v 0 l 0.28,0.44 a 6.82,6.82 0 0 0 -0.66,0.75 l 0.72,3.87 0.11,0.6 a 15.68,15.68 0 0 0 -2.23,4.16 c 0,0 2.85,2.9 2.43,6.28 -0.42,3.38 1.13,7.52 1.21,7.74 -0.17,-0.18 -2.18,-2.19 -4.08,-1.6 -1.9,0.59 -7.23,2.4 -7.23,2.4 0,0 -4,0.86 -3.59,1.73 0.41,0.87 -2.55,4.88 -2.55,4.88 l -11.2,-9.82 c -0.12,-0.3 -0.24,-0.6 -0.35,-0.91 a 25.63,25.63 0 0 1 -1.11,-4.45 24.33,24.33 0 0 0 3.41,-1.23 7.47,7.47 0 0 0 2.92,-2 c 1,-1.33 1.18,-3.1 1.56,-4.72 0.73,-3.18 2.46,-6.05 3.66,-9.09 a 29.07,29.07 0 0 0 1.47,-16.06 10.66,10.66 0 0 0 -1.84,-4.63 c -1.86,-2.36 -5.09,-3.23 -7.49,-5.07 -2.4,-1.84 -4,-4.74 -6.78,-6.09 -2.5,-1.22 -5.48,-1 -8.22,-0.39 a 43.87,43.87 0 0 0 -15.1,6.15 c -1.53,1 -3.22,2.14 -5,1.88 -1.56,-0.22 -2.74,-1.42 -3.79,-2.57 a 0.83,0.83 0 0 1 0,-0.15 l -0.13,-0.13 a 19.09,19.09 0 0 0 -1.36,8.14 c 0,0.43 0,0.86 0.1,1.29 0,0.15 0,0.3 0,0.45 a 2.41,2.41 0 0 1 0,0.38 v 0 a 2.29,2.29 0 0 1 -0.06,0.58 4.16,4.16 0 0 1 -1,1.49 9,9 0 0 0 -0.84,1.24 c 0,-0.15 0.08,-0.3 0.13,-0.45 a 6.32,6.32 0 0 0 -1,3.45 3.4,3.4 0 0 0 0.9,2.41 11.76,11.76 0 0 0 1.82,1.35 19.53,19.53 0 0 0 -0.19,3.6 20.91,20.91 0 0 0 10.86,17.43 c 0.14,0.3 0.27,0.6 0.41,0.91 1.52,3.58 2.72,7.77 2.41,11.7 0,0.29 -0.06,0.58 -0.1,0.86 -0.04,0.28 -0.26,0.31 -0.37,0.47 v 0 c 0,0 -17.83,0.86 -22.17,-2.78 -4.34,-3.64 -10.24,9.69 -10.24,9.69 0,0 -6.34,1.49 -7.67,0.3 -1.33,-1.19 -8.78,0.16 -8.78,0.16 a 16.08,16.08 0 0 0 -11.29,-3.64 33.09,33.09 0 0 0 -8.36,-4.23 v 0 l -0.21,-0.06 v 0 a 9.18,9.18 0 0 0 -4,-0.36 c 0,0 -9.05,-6.91 -11.76,-10.7 -2.71,-3.79 -15.44,-17.75 -15.5,-17.82 l -0.07,-0.69 -0.22,-2.1 a 7.55,7.55 0 0 1 -1.09,0.14 l -0.27,-0.72 a 38.49,38.49 0 0 0 -2.82,-5.84 c 0,0 -0.1,-2.66 0.65,-3.35 0.75,-0.69 -0.72,-10.38 -0.72,-10.38 0,0 -8.61,-18.17 -15.16,-4.1 0,0 -13,9.44 -1.41,19.39 0,0 4.57,2 5.27,3.7 0.46,1.1 2.1,4.16 3.2,6.19 0.18,0.34 0.35,0.64 0.49,0.91 l -0.12,0.11 0.23,1.73 0.09,0.67 c -2.06,1.28 -3.45,2.53 -3.07,3.42 a 19.33,19.33 0 0 1 1.46,4.72 c 0,0 16.28,18.85 18.61,27.09 0,0 42.6,23.15 56.37,24.39 l -1.8,12.44 a 98.66,98.66 0 0 0 -0.16,10.1 c 0.28,2.65 -1.08,14.74 -1.08,14.74 0,0 -1.7,17.77 -3.61,20.33 -1.91,2.56 -1.15,13.14 -1.15,13.14 a 89.34,89.34 0 0 1 -2.16,15.14 c -1.75,6.79 0,15.05 0,15.05 0,0 -6.33,16.18 9.88,4.75 0,0 8.14,-0.82 17.52,-1.5 0,0.31 0,0.62 0,0.94 0,1.21 0.06,2.52 0.1,3.9 0.22,9.12 0.65,21.68 1.43,31.17 1.39,16.77 7.78,49.77 7.78,49.77 l 0.64,16.7 a 22.94,22.94 0 0 0 -0.29,4.79 31,31 0 0 0 5.1,16.59 l 1.71,11.08 c 0,0 3.28,7.23 3.51,11.61 a 6,6 0 0 1 -0.09,1.07 7.4,7.4 0 0 0 -0.08,1.71 c 0,5.06 3.54,17.05 3.54,17.05 0,0 0.65,12.19 2.5,12.83 1.59,0.54 -1.81,7.11 -2.83,9 a 3.59,3.59 0 0 1 -0.08,-0.35 c -0.13,0.25 -0.21,0.38 -0.21,0.38 a 8.69,8.69 0 0 0 -0.45,3.11 4.42,4.42 0 0 0 2.19,4.21 c 3.55,2 5.48,3.68 2.57,4.5 a 31,31 0 0 0 -3.2,0.81 c 0,-0.14 -0.12,-0.28 -0.17,-0.41 a 2,2 0 0 0 -1.12,2.18 9.2,9.2 0 0 0 1.25,4.1 c 3.18,6.43 5.3,8.83 5.3,8.83 l 1.39,-0.21 a 7.27,7.27 0 0 1 -0.75,1.54 5.93,5.93 0 0 1 -2,1.91 6.31,6.31 0 0 1 -2.46,1 7,7 0 0 0 -5.08,2.72 c -1.73,2.42 -2.75,5.68 1,8.36 l 13.24,4 c 0,0 22.58,2.06 21.19,-2.94 -1.39,-5 -2.28,-9.38 -2.28,-9.38 a 20,20 0 0 0 -2.17,-8.87 11,11 0 0 0 -0.84,-1.29 l 0.79,-0.12 c 0,0 1.21,-11.2 3.32,-13.41 0.49,-0.5 0.59,-0.88 0.46,-1.17 0.2,-0.62 -0.38,-1 -1.13,-1.12 0,0.14 -0.09,0.29 -0.14,0.44 a 11.21,11.21 0 0 0 -2.19,-0.16 c 0,0 -1,-5.8 1.34,-8 a 2.24,2.24 0 0 0 0.39,-1.75 9.47,9.47 0 0 0 -0.34,-2.36 0.61,0.61 0 0 0 -0.07,0.14 c -1.41,-5.25 -5.78,-13.51 -5.78,-13.51 0,0 -0.38,-5.3 1,-7.47 1.38,-2.17 -1.3,-28.82 -1.3,-28.82 0,0 0.06,-12.93 -1.82,-18.87 -1.88,-5.94 1.51,-13.16 1.51,-13.16 0,0 0,-0.14 -0.06,-0.39 v -0.09 c 0,0 -0.11,-0.79 -0.29,-2 a 0.65,0.65 0 0 1 0,0.13 c -0.49,-3.4 -1.43,-9.56 -2,-12.41 -0.89,-4 -0.72,-23.52 -0.72,-23.52 l 3,-8.44 6.4,14.1 6.95,18.86 c 0,0 3.23,3.91 3.46,8 0,0.2 0,0.4 0,0.6 a 11,11 0 0 0 0,1.28 11.38,11.38 0 0 0 2.15,6.72 c 0,0 2,9 4.64,11.16 2.64,2.16 2.82,6.62 2.82,6.62 0,0 3.61,13 5.16,15.21 1.3,1.89 1.57,7.21 1.62,8.84 v 0 c 0,0.3 0,0.48 0,0.48 0,0 0.62,4.66 0.75,8.59 0,0.48 0,1 0,1.4 0,0 0,-0.07 0,-0.1 a 14.23,14.23 0 0 1 -0.26,3.19 c 0,0.06 0,0.12 0,0.19 q 0,-0.35 0,-0.66 a 33.61,33.61 0 0 0 -0.62,8.18 c 0.1,4.71 1,10.25 4,13.41 5.15,5.47 8.23,4.64 8.23,4.64 0,0 -2.1,7.16 -5,8.69 a 2.11,2.11 0 0 0 -0.31,0.21 c 0,-0.13 -0.06,-0.27 -0.08,-0.4 a 3.42,3.42 0 0 0 -0.76,2.66 c -0.09,3.12 2.07,8.1 4,10.35 a 5.82,5.82 0 0 0 2.52,1.34 4.91,4.91 0 0 1 -0.44,0.31 9.45,9.45 0 0 1 -1,0.51 4.9,4.9 0 0 1 -1.48,0.44 7.05,7.05 0 0 0 -5.08,2.72 c -1.72,2.42 -2.75,5.67 1,8.36 l 13.24,4 c 0,0 22.54,1.95 21.11,-3.05 z" />
  <path
     style="fill:#2d293d"
     inkscape:connector-curvature="0"
     id="svg_128"
     d="m 839.47001,605.87001 -12.82,-4 c -3.59,-2.69 -2.6,-5.95 -0.93,-8.37 a 6.75,6.75 0 0 1 4.91,-2.71 6,6 0 0 0 2.38,-1 5.5999999,5.5999999 0 0 0 1.93,-1.91 9.3599997,9.3599997 0 0 0 1.26,-4.94 c 0,0 13.72,-4.6 17.68,-0.68 a 10.68,10.68 0 0 1 1.78,2.4 20.65,20.65 0 0 1 2.11,8.88 c 0,0 0.88,4.38 2.22,9.38 1.34,5 -20.52,2.95 -20.52,2.95 z" />
  <path
     style="fill:#2d293d"
     inkscape:connector-curvature="0"
     id="svg_129"
     d="m 901.11002,597.26003 -12.81,-4 c -3.6,-2.68001 -2.61,-5.94001 -0.94,-8.35001 a 6.6799998,6.6799998 0 0 1 4.91,-2.71 5,5 0 0 0 1.43,-0.45 8.2600002,8.2600002 0 0 0 1,-0.51 c 3.47,-2.08 3.19,-6.85 3.19,-6.85 0,0 13.73,-4.6 17.68,-0.68 a 9.7799997,9.7799997 0 0 1 1.4,1.75 c 2.54,4 2.49,9.52001 2.49,9.52001 0,0 0.88,4.4 2.22,9.39 1.34,4.99 -20.57,2.89 -20.57,2.89 z" />
  <path
     style="opacity:0.1"
     inkscape:connector-curvature="0"
     id="svg_130"
     d="m 853.87998,582.3 a 10.68,10.68 0 0 1 1.78,2.4 v 0 l -20.72,3.21 a 9.3599997,9.3599997 0 0 0 1.26,-4.94 c 0,0 13.72004,-4.58998 17.68,-0.67 z" />
  <path
     style="opacity:0.1"
     inkscape:connector-curvature="0"
     id="svg_131"
     d="m 916.92002,575.44002 0.15,3.9 c -3,5.46 -18.72,4.89 -23.37,2.39 a 8.2600002,8.2600002 0 0 0 1,-0.51 c 3.47,-2.08 3.19,-6.85 3.19,-6.85 0,0 13.73,-4.6 17.68,-0.68 a 9.7799997,9.7799997 0 0 1 1.35,1.75 z" />
  <path
     style="fill:#65617d"
     inkscape:connector-curvature="0"
     id="svg_132"
     d="m 918.74998,558.56001 a 34.32,34.32 0 0 0 -2.27,5.4 l 0.53,14 c -3.31,6 -21.77,4.74 -24.37,1.65 -2.6,-3.09 -5.57,-11.29 -2.79,-12.82 2.78,-1.53 4.8,-8.68 4.8,-8.68 0,0 -3,0.82 -8,-4.65 -5,-5.47 -4.06,-18.08 -3.29,-21.12 0.77,-3.04 -0.51,-13.09 -0.51,-13.09 0,0 -0.09,-7.08 -1.59,-9.32 -1.5,-2.24 -5,-15.21 -5,-15.21 0,0 -0.17,-4.42 -2.73,-6.63 -2.56,-2.21 -4.5,-11.16 -4.5,-11.16 a 11.6,11.6 0 0 1 -2.06,-7.53 c 0.36,-4.44 -3.36,-9.08 -3.36,-9.08 l -6.75,-18.86 -6.21,-14.11 -2.84995,8.44999 c 0,0 -0.14,19.48 0.73,23.52 0.87,4.04 2.34,14.78 2.34,14.78 0,0 -3.27,7.21 -1.44,13.16 1.83,5.95 1.79,18.88 1.79,18.88 0,0 2.61,26.63 1.28,28.81 -1.33,2.18 -1,7.47 -1,7.47 0,0 7.85,15.28 5.63,17.49 -2.22,2.21 -1.29,8 -1.29,8 0,0 5,-0.19 2.92,2 -2.08,2.19 -3.21,13.41 -3.21,13.41 l -21.28,3.3 c 0,0 -2.06,-2.4 -5.14,-8.84 -3.08,-6.44 0.31,-5.85 3.13,-6.67 2.82,-0.82 1,-2.51 -2.49,-4.51 -3.49,-2 -1.68,-6.84 -1.68,-6.84 0,0 4.79,-8.86 3,-9.5 -1.79,-0.64 -2.44,-12.83 -2.44,-12.83 0,0 -4.09,-14.36 -3.36,-18.29 0.73,-3.93 -3.34,-13.15 -3.34,-13.15 l -1.66,-11.09 a 30.639999,30.639999 0 0 1 -4.7,-20.89 l -0.62002,-17.21 c 0,0 -6.23,-33 -7.58,-49.82 -0.87,-10.74 -1.31,-25.42 -1.51,-34.59 -0.11,-5.14 -0.15,-8.55 -0.15,-8.55 l 76.07,-10.89 a 63.52,63.52 0 0 0 1.82,11.29 c 0.94,4.16 2.37,9.55 4.55,16.26 6.23,19.24 3.43,33.87 3.43,33.87 l 0.24,24.6 c 0,0 7.35,16.18 6.15,21.9 a 47.549999,47.549999 0 0 0 -1,10.31 c 0,0 16.41,35.31 15.22,45.8 -1.19,10.49 6,26.69 6,26.69 0,0 2.18999,11.64001 0.53997,14.89001 z" />
  <path
     style="opacity:0.05"
     inkscape:connector-curvature="0"
     id="svg_133"
     d="m 871.53001,468.12001 23.13,-4 c 0,0 -12.65002,13.96002 -23.13,4 z" />
  <path
     style="opacity:0.1"
     inkscape:connector-curvature="0"
     id="svg_134"
     d="m 890.4,441.53999 c 0,0 1.11,8.19 -3.81,11.48 0.03,-2e-5 9,-1.75996 3.81,-11.48 z" />
  <path
     style="opacity:0.1"
     inkscape:connector-curvature="0"
     id="svg_135"
     d="m 887.99998,415.43001 c 0,0 -18.82,16.75 -26,15.7 -7.18,-1.05 26,-15.7 26,-15.7 z" />
  <path
     style="opacity:0.1"
     inkscape:connector-curvature="0"
     id="svg_136"
     d="m 842.99998,476.8 c 0,0 -14.63,3.92 -14.84,9.86 -0.21,5.94 14.84,-9.86 14.84,-9.86 z" />
  <path
     style="opacity:0.05"
     inkscape:connector-curvature="0"
     id="svg_137"
     d="m 849.09,550.34999 c 0,0 -20.69,4.69 -14.69,7.10999 6,2.41998 15.83,4.18 15.83,4.18 0,0 6.73,0.09 -1.14,-11.28999 z" />
  <g
     style="opacity:0.05"
     id="svg_138">
    <path
       inkscape:connector-curvature="0"
       id="svg_139"
       d="m 830.4,561.8 a 4.1500001,4.1500001 0 0 1 -2,-2.95 c -0.12,0.24 -0.2,0.38 -0.2,0.38 0,0 -1.76,4.84 1.68,6.84 0.4,0.23 0.77,0.45 1.12,0.67 0.62,-0.14 1.28,-0.25 1.92,-0.44 2.74001,-0.77002 0.87002,-2.5 -2.52,-4.5 z" />
    <path
       inkscape:connector-curvature="0"
       id="svg_140"
       d="m 857.17002,559.39003 c 0.55,-0.55 0.48,-1.91 0.06,-3.64 a 9.8199997,9.8199997 0 0 0 -1,5.16 4.0999999,4.0999999 0 0 1 0.94,-1.52 z" />
    <path
       inkscape:connector-curvature="0"
       id="svg_141"
       d="m 850.56998,471.55 a 24,24 0 0 0 -1.16,6.56 25.51,25.51 0 0 1 1.45,-4.53 c 0,0 -0.11,-0.78 -0.29,-2.03 z" />
    <path
       inkscape:connector-curvature="0"
       id="svg_142"
       d="m 897.98002,460.43001 a 7.8600001,7.8600001 0 0 0 0.12,-1.94 c -0.21,1.33 -0.35,2.56 -0.44,3.64 0.1,-0.54998 0.2,-1.11998 0.32,-1.7 z" />
    <path
       inkscape:connector-curvature="0"
       id="svg_143"
       d="m 852.49003,534.42 a 11.24,11.24 0 0 0 0.37,-3.94 13.31,13.31 0 0 0 -0.82,5 4.8099999,4.8099999 0 0 1 0.45,-1.06 z" />
    <path
       inkscape:connector-curvature="0"
       id="svg_144"
       d="m 858.15,567.59999 a 69.589996,69.589996 0 0 0 -2,11 l -21.28,3.3 c 0,0 -2.05,-2.4 -5.13,-8.83 -0.27,-0.57 -0.49,-1.08 -0.67,-1.54 -1.26,0.64 -1.71,2 0.12,5.81 3.08,6.43 5.14,8.83 5.14,8.83 l 21.28,-3.3 c 0,0 1.16,-11.2 3.2,-13.4 0.99003,-1.13001 0.30002,-1.66999 -0.66,-1.87 z" />
    <path
       inkscape:connector-curvature="0"
       id="svg_145"
       d="m 828.68003,536.93001 c 0,0 0.65,12.2 2.44,12.84 v 0 c 0.82,-2.05 1.34,-4 0.54,-4.27 -1.8,-0.64 -2.44,-12.84 -2.44,-12.84 0,0 -4.1,-14.36 -3.36,-18.28 0.74,-3.92 -3.34,-13.15 -3.34,-13.15 l -1.67,-11.09 a 30.639999,30.639999 0 0 1 -4.7,-20.89 l -0.66,-17.15 c 0,0 -6.23,-33 -7.58,-49.82 -0.87,-10.74 -1.31,-25.43 -1.51,-34.59 0,-1.66 -0.06,-3.13 -0.09,-4.37 l -0.61,0.09 c 0,0 0,3.4 0.16,8.55 0.2,9.16 0.64,23.85 1.5,34.59 1.36,16.77 7.59,49.82 7.59,49.82 l 0.66,17.15 a 30.639999,30.639999 0 0 0 4.7,20.89 l 1.66,11.09 c 0,0 4.08,9.22 3.34,13.15 -0.74,3.93 3.37,18.28 3.37,18.28 z" />
    <path
       inkscape:connector-curvature="0"
       id="svg_146"
       d="m 893.17002,574.8 a 20.68,20.68 0 0 1 -3.7,-8.26 c -2.11,2 0.69,9.6 3.16,12.53 2.6,3.09 21.06,4.33 24.37,-1.64 l -0.13,-3.37 c -4.59001,4.94002 -21.24004,3.68001 -23.7,0.74 z" />
    <path
       inkscape:connector-curvature="0"
       id="svg_147"
       d="m 919.28001,553.8 a 34.32,34.32 0 0 0 -2.27,5.4 l 0.09,2.48 c 0.37,-0.92 0.9,-2.15 1.64,-3.61 a 10.73,10.73 0 0 0 0.6,-4.41 z" />
    <path
       inkscape:connector-curvature="0"
       id="svg_148"
       d="m 893.60001,557.58998 a 33.389999,33.389999 0 0 0 1.58,-4.27 c 0,0 -3,0.82 -8,-4.65 -3.63,-4 -4.13,-11.75 -3.83,-16.85 -0.77,3 -1.7,15.65 3.29,21.12 3.29002,3.57999 5.68998,4.46 6.96,4.65 z" />
    <path
       inkscape:connector-curvature="0"
       id="svg_149"
       d="m 882.86997,518.74001 a 96,96 0 0 1 0.76,10.46 12.91,12.91 0 0 1 0.3,-1.65 c 0.77,-3 -0.51,-13.08 -0.51,-13.08 0,0 -0.1,-7.08 -1.6,-9.33 -1.5,-2.25 -5,-15.21 -5,-15.21 0,0 -0.17,-4.42 -2.74,-6.62 -2.57,-2.2 -4.5,-11.16 -4.5,-11.16 a 11.64,11.64 0 0 1 -2.06,-7.54 c 0.36,-4.44 -3.36,-9.07 -3.36,-9.07 L 857.4,436.67 l -6.21,-14.1 -2.86,8.43 c 0,0 0,1 0,2.69 l 2.33,-6.85 6.21,14.1 6.74002,18.86 c 0,0 3.72,4.63 3.36,9.07 a 11.58,11.58 0 0 0 2.06,7.54 c 0,0 1.93,9 4.5,11.16 2.57,2.16 2.73,6.62 2.73,6.62 0,0 3.51,13 5,15.21 1.49,2.21 1.60995,9.34001 1.60995,9.34001 z" />
  </g>
  <path
     style="fill:#ffcdd3"
     inkscape:connector-curvature="0"
     id="svg_150"
     d="m 885.19999,192.87001 -1.08,6.51 0.19,2.87 0.14,2.12 -7.35,1 -0.89,-1.5 v 0 c -1.63,-2.71 -5,-8.22 -6.08,-9 -1.4,-1.09 -4.53,-18.95 -1.57,-18 a 7.75,7.75 0 0 1 4.26,3.56 c 0,0 14.58001,1.11999 12.38,12.44 z" />
  <path
     style="opacity:0.1"
     inkscape:connector-curvature="0"
     id="svg_151"
     d="m 884.44999,204.37001 -7.35,1 -0.89,-1.5 v 0 a 6.52,6.52 0 0 1 8.1,-1.66 z" />
  <path
     style="fill:#dce6f2"
     inkscape:connector-curvature="0"
     id="svg_152"
     d="m 886.4,207.8 -9.64,2.63 -0.26,-1.44 -0.7,-3.88 c 0,0 3.65,-5.28 9.37,-1.64 l 0.56,2 z" />
  <path
     style="fill:#ffcdd3"
     inkscape:connector-curvature="0"
     id="svg_153"
     d="m 728.30997,199.62001 -10.17,6 c 0,0 -0.43,-0.8 -1,-1.92 -1.07,-2 -2.66,-5.1 -3.11,-6.2 -0.68,-1.69 -5.1,-3.7 -5.1,-3.7 -11.27,-10 1.34,-19.39 1.34,-19.39 6.32,-14.06 14.67,4.12 14.67,4.12 0,0 1.44,9.69 0.71,10.38 -0.73,0.69 -0.62,3.34 -0.62,3.34 a 39.299999,39.299999 0 0 1 2.73,5.85 c 0.36,0.91999 0.55,1.52 0.55,1.52 z" />
  <path
     style="opacity:0.1"
     inkscape:connector-curvature="0"
     id="svg_154"
     d="m 728.30997,199.62001 -10.17,6 c 0,0 -0.43,-0.8 -1,-1.92 1.41,-1.28 6.45,-5.7 8.16,-5.57 a 13.19,13.19 0 0 0 2.46,0 c 0.36,0.88999 0.55,1.49 0.55,1.49 z" />
  <path
     style="fill:#dce6f2"
     inkscape:connector-curvature="0"
     id="svg_155"
     d="m 729.49003,202.72002 -11.45,6.2 -0.33,-2.5 -0.23,-1.73 c 0,0 6.54,-6.05 8.55,-5.91 a 10.82,10.82 0 0 0 3,-0.12 l 0.22,2.09 z" />
  <path
     style="fill:#ffcdd3"
     inkscape:connector-curvature="0"
     id="svg_156"
     d="m 858.55997,236.8 c 0,0 -50.66,7.7 -41.27,4.25 6.54,-2.42 9,-6.73 9.38,-11.41 0.29,-3.93 -0.87,-8.12 -2.35,-11.71 a 51.09,51.09 0 0 0 -4.9,-9 c 0,0 38.07,-22.89 31,-3.14 a 30.940001,30.940001 0 0 0 -1.85,9.3 26,26 0 0 0 1.36,9.29 27.799999,27.799999 0 0 0 8.63,12.42 z" />
  <path
     style="opacity:0.1"
     inkscape:connector-curvature="0"
     id="svg_157"
     d="m 850.46,205.8 a 30.940001,30.940001 0 0 0 -1.85,9.3 c -3.54,3.22 -7.57,3.17 -12.73,3.37 -4,0.15 -8.32,1.28 -11.56,-0.51 a 51.09,51.09 0 0 0 -4.9,-9 c 0,0 38.07003,-22.89999 31.04,-3.16 z" />
  <circle
     style="fill:#ffcdd3"
     id="svg_158"
     r="21.059999"
     cy="198.81"
     cx="834.44" />
  <path
     style="opacity:0.1"
     inkscape:connector-curvature="0"
     id="svg_159"
     d="m 858.55997,236.8 c 0,0 -50.66,7.7 -41.27,4.25 6.54,-2.42 9,-6.73 9.38,-11.41 2.43,-2.85 7.44,-5 10.67,-6.2 a 15.19,15.19 0 0 1 9.21,-0.5 12.83,12.83 0 0 1 3.42,1.42 27.799999,27.799999 0 0 0 8.59,12.44 z" />
  <path
     style="opacity:0.1"
     inkscape:connector-curvature="0"
     id="svg_160"
     d="m 886.4,207.8 -9.64,2.63 -0.26,-1.44 a 8.6199999,8.6199999 0 0 1 9.23,-3.56 z" />
  <path
     style="opacity:0.1"
     inkscape:connector-curvature="0"
     id="svg_161"
     d="m 729.49003,202.72002 -11.45,6.2 -0.33,-2.5 A 84.760002,84.760002 0 0 1 729.29002,200.8 Z" />
  <path
     style="opacity:0.1"
     inkscape:connector-curvature="0"
     id="svg_162"
     d="m 883.61997,364.28001 c -19.58,3.87 -47.47,9 -52,7.81 -3.74,-1 -15.52,-0.41 -25.77,0.34 -0.11,-5.14 -0.15,-8.55 -0.15,-8.55 l 76.07,-10.89 a 63.52,63.52 0 0 0 1.85,11.29 z" />
  <path
     style="fill:#3f3d56"
     inkscape:connector-curvature="0"
     id="svg_163"
     d="m 903.10001,358.90001 c 0,0 -64.46,13.63 -71.51,11.78 -7.05,-1.85 -42.71,1.82 -42.71,1.82 -15.67,11.4 -9.57,-4.77 -9.57,-4.77 0,0 -1.73,-8.25 0,-15.05 a 92.449997,92.449997 0 0 0 2.07,-15.13 c 0,0 -0.76,-10.59 1.09,-13.14 1.85,-2.55 3.47,-20.32 3.47,-20.32 0,0 1.3,-12.09 1,-14.74 -0.3,-2.65 0.15,-10.09 0.15,-10.09 L 788.88999,266.8 c -13.33,-1.26 -54.59,-24.46 -54.59,-24.46 -2.27,-8.23 -18,-27.1 -18,-27.1 a 20.299999,20.299999 0 0 0 -1.42,-4.73 c -1.17,-2.79 14.53,-9.06 14.53,-9.06 0,0 12.4,14 15,17.84 2.6,3.84 11.39,10.72 11.39,10.72 a 8.5,8.5 0 0 1 3.91,0.35 l 0.2,0.06 v 0 a 31.66,31.66 0 0 1 8.09,4.24 15.36,15.36 0 0 1 10.94,3.65 c 0,0 7.21,-1.34 8.49,-0.15 1.28,1.19 7.43,-0.28 7.43,-0.28 0,0 5.68,-13.33 9.89,-9.68 4.21,3.65 21.47,2.8 21.47,2.8 2.18,-3.14 7.69,-5.55 11.15,-6.81 a 15.19,15.19 0 0 1 9.21,-0.51 11.82,11.82 0 0 1 3.71,1.62 l 10.86,9.85 c 0,0 2.86,-4 2.47,-4.88 -0.39,-0.88 3.48,-1.72 3.48,-1.72 0,0 5.06,-1.79 7,-2.4 1.94,-0.61 3.78,1.44 3.95,1.61 -0.08,-0.22 -1.57,-4.45 -1.18,-7.74 0.39,-3.29 -2.37,-6.28 -2.37,-6.28 5.61,-15.44 20.06,-3.25 20.06,-3.25 0,0 1.92,8.25 0.62,11.49 -1.3,3.24 1.8,9.84 1.51,11.62 -0.29,1.78 0.89,4.75 1,8.11 0.11,3.36 -1.39,9.79 -2.34,12.66 -0.95,2.87 -9.2,9.56 -9.2,9.56 0,0 -0.14,10.1 -3.63,16.08 -3.49,5.98 -0.42,25.87 -0.42,25.87 0,0 4.14,15.42 8.75,20.2 4.61,4.78001 12.25002,32.82001 12.25002,32.82001 z" />
  <path
     style="opacity:0.1"
     inkscape:connector-curvature="0"
     id="svg_164"
     d="m 804.03001,246.2 c 0,0 -2.17,-5.76 -4,-6.22 a 42.43,42.43 0 0 1 -5.21,-2.1 l 1,-2.22 c 0,0 6.71,1.56 7.85,3.47 1.14,1.91 0.36,7.07 0.36,7.07 z" />
  <path
     style="opacity:0.1"
     inkscape:connector-curvature="0"
     id="svg_165"
     d="m 767.99998,234.65999 c -0.29,1.78 -16,4 -16,4 l 7.65,-8.29 v 0 l 0.2,0.06 v 0 a 31.66,31.66 0 0 1 8.15,4.23 z" />
  <circle
     style="fill:#575988"
     id="svg_166"
     r="1.42"
     cy="212.14"
     cx="721.53998" />
  <circle
     style="fill:#575988"
     id="svg_167"
     r="1.42"
     cy="214.89999"
     cx="723.46002" />
  <circle
     style="fill:#575988"
     id="svg_168"
     r="1.42"
     cy="217.44"
     cx="725.33002" />
  <circle
     style="fill:#575988"
     id="svg_169"
     r="1.42"
     cy="220.2"
     cx="727.28998" />
  <circle
     style="fill:#575988"
     id="svg_170"
     r="1.15"
     cy="213.63"
     cx="893.95001" />
  <circle
     style="fill:#575988"
     id="svg_171"
     r="1.15"
     cy="216.23"
     cx="894.22998" />
  <circle
     style="fill:#575988"
     id="svg_172"
     r="1.15"
     cy="218.83"
     cx="894.47998" />
  <path
     style="opacity:0.1"
     inkscape:connector-curvature="0"
     id="svg_173"
     d="m 805.96,294.11 c -0.17,-0.2 41.62,48.6 71.45,18.32 -0.01,10e-6 -48.64,8.51002 -71.45,-18.32 z" />
  <path
     style="opacity:0.1"
     inkscape:connector-curvature="0"
     id="svg_174"
     d="m 784.06998,321.15999 c 0,0 23.88,-0.27 26.64,6.49 l 0.27,7.14 a 4.5500002,4.5500002 0 0 1 -4.44,0.17 c -2.45,-1.2 -17.15,-8 -22.1,-4.25 z" />
  <path
     style="opacity:0.1"
     inkscape:connector-curvature="0"
     id="svg_176"
     d="m 795.10001,268.87001 a 76.720001,76.720001 0 0 0 9.86,15.51 62.23,62.23 0 0 0 15,13.42 c 0,0 -24.34004,-25.67002 -24.86,-28.93 z" />
  <path
     style="opacity:0.1"
     inkscape:connector-curvature="0"
     id="svg_177"
     d="m 786.23002,241.46001 c 0,0 4.64,17 15.12,22.46 z" />
  <path
     style="opacity:0.1"
     inkscape:connector-curvature="0"
     id="svg_178"
     d="m 780.19999,243.43001 c -0.12,-0.32 -3,13.72 14,20.76 0.03,1e-5 -7.17999,-2.14001 -14,-20.76 z" />
  <path
     style="opacity:0.1"
     inkscape:connector-curvature="0"
     id="svg_179"
     d="m 883.88999,227.90001 c -0.26,0 8.48,5.11 10.89,7.55 2e-5,-1e-5 -5.85997,-8.10002 -10.89,-7.55 z" />
  <path
     style="fill:#2d293d"
     inkscape:connector-curvature="0"
     id="svg_180"
     d="m 829.48002,218.09999 a 3.3099999,3.3099999 0 0 0 3.75,3.15 c 6.43,0.15 13.12,0.18 19,-2.52 a 7.1599998,7.1599998 0 0 0 2.81,-2 c 1,-1.33 1.14,-3.09 1.51,-4.72 0.71,-3.17 2.37,-6 3.54,-9.08 a 30.07,30.07 0 0 0 1.41997,-16.12999 10.74,10.74 0 0 0 -1.78,-4.63 c -1.8,-2.37 -4.94,-3.23 -7.26,-5.08 -2.32,-1.85 -3.89,-4.75 -6.57,-6.1 -2.42,-1.22 -5.31,-1 -8,-0.4 a 41.759998,41.759998 0 0 0 -14.6,6.14 c -1.49,1 -3.12,2.13 -4.89,1.87 -1.55,-0.23 -2.71,-1.48 -3.75,-2.65 a 19.610001,19.610001 0 0 0 -1.22,9.23 4,4 0 0 1 0,1.38 4.2399998,4.2399998 0 0 1 -0.93,1.49 c -1.51,1.9 -2.39,4.85 -0.75,6.64 0.71,0.79 1.77,1.19 2.47,2 1.24,1.43 0.92,3.57 1,5.46 a 2.77,2.77 0 0 0 0.54,1.85 2.73,2.73 0 0 0 2.62,0.52 7.0700002,7.0700002 0 0 1 2.75,-0.37 4.5799999,4.5799999 0 0 1 2.48,1.76 c 3.12999,3.61 4.43998,7.71001 5.86003,12.18999 z" />
  <g
     style="opacity:0.1"
     id="svg_181">
    <path
       inkscape:connector-curvature="0"
       id="svg_182"
       d="m 855.65,215.05 a 7.1700001,7.1700001 0 0 1 -2.82,2 c -5.84,2.7 -12.52,2.68 -18.95,2.52 a 3.3099999,3.3099999 0 0 1 -3.76,-3.14 c -1.41,-4.49 -2.73,-8.59 -5.84,-12.24 a 4.5999999,4.5999999 0 0 0 -2.47,-1.76 7.3099999,7.3099999 0 0 0 -2.76,0.37 2.73,2.73 0 0 1 -2.62,-0.52 2.8299999,2.8299999 0 0 1 -0.54,-1.85 c 0,-1.89 0.28,-4 -1,-5.46 -0.69,-0.8 -1.76,-1.2 -2.47,-2 a 4.1599998,4.1599998 0 0 1 -0.57,-4.21 c -1.05,1.83 -1.45,4.14 -0.08,5.65 0.71,0.78 1.78,1.18 2.47,2 1.24,1.43 0.93,3.57 1,5.47 a 2.76,2.76 0 0 0 0.54,1.84 2.7,2.7 0 0 0 2.62,0.52 7.2800002,7.2800002 0 0 1 2.76,-0.37 4.6500001,4.6500001 0 0 1 2.47,1.76 c 3.11,3.66 4.42,7.75 5.84,12.24 a 4.4499998,4.4499998 0 0 0 1.75,2.78 4.5100002,4.5100002 0 0 0 2,0.37 c 6.43,0.15 13.12,0.17 19,-2.53 a 7.25,7.25 0 0 0 2.82,-2 5.7199998,5.7199998 0 0 0 0.84,-1.74 2.9000001,2.9000001 0 0 1 -0.23,0.3 z" />
    <path
       inkscape:connector-curvature="0"
       id="svg_183"
       d="m 813.53001,185.97002 a 3,3 0 0 0 0.6,-1.09 3.77,3.77 0 0 0 0,-1.38 19.59,19.59 0 0 1 0.7,-7.65 l -0.13,-0.14 a 19.639999,19.639999 0 0 0 -1.22,9.23 5.9400001,5.9400001 0 0 1 0.05,1.03 z" />
  </g>
  <path
     style="opacity:0.1"
     inkscape:connector-curvature="0"
     id="svg_184"
     d="m 826.22001,231.00002 c 0,0 26.42,2.48 28.63,-1.57" />
  <path
     style="opacity:0.1"
     inkscape:connector-curvature="0"
     id="svg_185"
     d="m 876.9,218.15999 c 0,0 14.6,-0.54 18,4.81" />
  <path
     style="opacity:0.1"
     inkscape:connector-curvature="0"
     id="svg_211"
     d="m 115.91,289.8 c 0,0 2.64,9.82 1,10.88 z" />
  <path
     style="opacity:0.1"
     inkscape:connector-curvature="0"
     id="svg_217"
     d="m 127.27,292.53001 a 15.17,15.17 0 0 0 6,3.12 3.9000001,3.9000001 0 0 1 -1.77,-0.83 c -1.22,-0.87 -2.38,-1.81 -3.55,-2.73 -0.94,-0.74 -2.13,-2 -3.3,-2.27 a 18.209999,18.209999 0 0 0 2.62,2.71 z" />
  <path
     style="opacity:0.1"
     inkscape:connector-curvature="0"
     id="svg_218"
     d="m 127.53001,296.98 a 7.3499999,7.3499999 0 0 1 1.31,2.09 8.3999996,8.3999996 0 0 1 0.38,2.7 8.5200005,8.5200005 0 0 1 -0.47,3.83 l -2.77,-6.57 c -0.47,-1.12 -1,-2.24 -1.52,-3.32 -0.25,-0.46 -1.82,-2.36 -1.64,-2.76 0.51999,-1.15 4.19999,3.39999 4.71,4.03 z" />
  <path
     style="opacity:0.1"
     inkscape:connector-curvature="0"
     id="svg_220"
     d="m 195.74,314.09001 a 1.89,1.89 0 0 1 -1.43,-0.36 q -3.16,-1.8 -6.24,-3.78 a 37.849998,37.849998 0 0 1 -6.1,-4.22 c 4.19,3.78999 8.09001,6.99001 13.77,8.36 z" />
  <path
     style="opacity:0.1"
     inkscape:connector-curvature="0"
     id="svg_221"
     d="m 201.6,336.49001 a 13.42,13.42 0 0 0 3.29,-0.26 4.4499998,4.4499998 0 0 0 2.71,-1.78 1.53,1.53 0 0 0 -1.15,0.18 19.42,19.42 0 0 1 -10.6,1.27 c 1.71001,0.72998 3.92,0.57999 5.75,0.59 z" />
</svg>
